<?xml version="1.0" encoding="utf-8"?>
<!-- Generator: Adobe Illustrator 28.2.0, SVG Export Plug-In . SVG Version: 6.00 Build 0)  -->
<svg version="1.1" id="Layer_1" xmlns="http://www.w3.org/2000/svg" xmlns:xlink="http://www.w3.org/1999/xlink" x="0px" y="0px"
	 viewBox="0 0 1920 1080" style="enable-background:new 0 0 1920 1080;" xml:space="preserve">
<style type="text/css">
	.st0{fill:none;}
	.st1{fill:#0B0B0B;}
	.st2{fill:#0C0B0C;}
	.st3{fill:#ABADC2;}
	.st4{fill:#AFC9D1;}
	.st5{fill:#B4D7DE;}
	.st6{fill:#5F3974;}
	.st7{fill:#C2F1EF;}
	.st8{fill:#EAEAF1;}
	.st9{fill:#9B87A7;}
	.st10{fill:#47275B;}
	.st11{fill:#DBD9F2;}
	.st12{fill:#F6F6F6;}
	.st13{fill:#6A1582;}
	.st14{fill:#FEFEFE;}
	.st15{fill:#AE93DA;}
	.st16{fill:#825896;}
</style>
<g>
	<path class="st0" d="M749.43,918.91c-211.61,0-423.22-0.01-634.82,0.09c-3.71,0-4.61-0.79-4.61-4.58
		c0.1-298.23,0.1-596.47,0.02-894.7c0-3.53,0.45-4.73,4.46-4.72c423.72,0.12,847.43,0.11,1271.15,0.02c3.57,0,4.36,0.69,4.36,4.33
		c-0.11,298.4-0.11,596.8,0.01,895.2c0,4.04-1.24,4.44-4.74,4.44C1173.31,918.9,961.37,918.91,749.43,918.91z M352.06,435.03
		c0.05,0.87,0.59,1.13,1.36,1.1c0.31,2.07,2.17,2.3,3.6,2.88c9.33,3.79,18.28,1.85,27.07-2c4.02-1.31,7.86-2.95,10.97-5.95
		c2.84-1.83,5.73-3.62,7.1-6.95c1.51,0.04,2.18-1.09,3.1-2.03c4.29-4.36,6.42-10.09,9.74-15.06c7.59-0.79,13.16-5.45,18.51-10.17
		c2.57-2.27,2.74-5.97,0.05-8.33c-3.28-2.86-6.88-5.55-11.35-6.52c0.38-8.38,0.76-16.77,1.14-25.15c1.32-9.6,1.18-19.18-0.36-28.74
		c-1.19-9.3-2.92-18.42-8.92-26.07c0.06-1.38-0.24-2.58-1.24-3.65c-5.22-5.6-10.19-11.7-18.26-13.1c-1.87-0.32-3.14-3.88-5.55-1.16
		c-0.65-0.03-1.29-0.06-1.94-0.09c-1.01-1.22-2.04-1.17-3.08-0.04c-0.96,0-1.92,0-2.89,0.01c-0.71-0.93-1.4-0.94-2.08,0.03
		c-1.12-0.05-2.31,0.14-3.15-0.89c0.08-2.23-1.39-2.06-2.88-1.86c-2.67-1.03-5.35-2.06-8.02-3.09c-1.62-0.4-3.24-0.8-4.86-1.21
		l0.08-0.1c-0.2-0.88-0.72-1.4-1.6-1.68c-12.39-3.85-25.05-4.52-37.63-1.75c-6.29,1.39-12.68,3.6-16.98,9.17
		c-1.85,0.98-3.93,1.74-3.98,4.36l-0.13-0.08c-5.22,2.21-7.15,7.11-8.74,11.8c-5.08,14.94-4.4,29.84,1.36,44.51
		c-0.1,5.28-0.21,10.55-0.31,15.83c-0.01,1.66-0.01,3.32-0.02,4.99c-0.08,1.06-0.54,2.19,0.55,3.04c0.24,4.13,1.22,8.14,1.84,12.2
		c0.9,5.86,4.92,11.22,2.48,17.69c-1.14,3.01-1.68,6.4-1.72,9.63c-0.12,9.11,0.42,18.14,8.73,24.28c3.67,5.64,9.78,4.12,15.03,5.12
		c3.11-0.31,4.3,1.69,4.94,4.21c9.97,38.95,49.3,54.52,82.96,51.65c13.93-1.18,27.27-5.86,40.87-8.98
		c9.91-2.27,19.92-3.14,29.84,0.11c8.78,2.88,10.05,6.44,5.38,14.11c-5.6,9.21-7.45,19.74-9.83,29.99
		c-1.64,7.04-3.42,14.17-3.2,21.54c0.07,2.44,0.79,4.66,3.39,5.35c2.66,0.71,4.42-0.59,5.41-3.14c0.6-1.53,1.51-2.94,2.23-4.43
		c6.71-13.81,13.23-27.74,22.85-39.88c1.28-1.61,2.45-3.3,5.16-3.65c-1.28,8.42-1.43,16.49-2.79,24.48
		c-1.3,7.65-2.68,15.44-1.52,23.26c0.84,5.71,4.91,7.37,9.84,4.26c1.39-0.87,2.59-1.94,3.69-3.26c3.94-4.75,7.2-9.94,10.5-15.13
		c2.45-3.86,4.46-8.05,7.88-11.59c3.04,21.83,16.24,27.34,35.02,13.16c3.82,12.67,9.99,16.76,21.04,13.91
		c3.91-1.01,7.37-2.92,10.66-5.23c13.7-9.61,23.56-22.81,33.46-35.94c4.41-5.84,8.43-11.96,12.62-17.96
		c-2.29,11.72-5.29,23.11-7.82,34.59c-3.74,16.97-7.11,34.02-7.02,51.52c0.03,4.82,0.3,9.61,2.68,13.99
		c1.22,2.25,3.02,3.85,5.59,2.59c2.43-1.2,3.02-3.59,1.56-5.92c-2.06-3.29-2.24-6.9-2.24-10.54c0.02-13.99,2.7-27.66,5.31-41.31
		c4.56-23.81,11.34-47.03,18.39-70.2c0.86-2.82,1.77-3.46,4.56-3.65c13.48-0.95,26.96-1.12,40.45-0.72c2.53,0.08,4.77-0.25,5.06-3.4
		c0.32-3.55-2.16-4.09-4.82-4.24c-3.49-0.2-6.99-0.42-10.48-0.44c-9.45-0.06-18.89-0.02-28.48-0.02c3.15-5.98,6.67-12.27,9.82-18.75
		c2.73-5.61,5.86-11.14,6.2-17.62c0.12-2.23,0.05-4.44-2.49-5.4c-2.26-0.86-4.22-0.12-5.96,1.4c-2.18,1.9-3.48,4.41-4.79,6.91
		c-5.24,9.97-8.86,20.6-12.43,31.23c-0.82,2.43-1.76,4.07-4.7,4.09c-12.28,0.08-24.36,2.09-36.45,3.98
		c-10.8,1.69-21.35,4.38-31.61,8.15c-2.07,0.76-3.9,2.06-3.39,4.79c0.5,2.66,2.45,3.38,4.81,3.39c4.54,0.02,8.86-0.74,13.05-2.76
		c2.62-1.26,4.87-3.18,8.04-3.63c7-0.98,13.88-2.89,20.89-3.76c7.8-0.97,15.61-2.48,24.29-2c-2.61,4.13-4.9,7.72-7.16,11.34
		c-12.45,19.91-25.46,39.43-42.17,56.11c-5.13,5.12-10.66,10.05-18.01,11.96c-6.17,1.6-9.84-1.34-10.1-7.71
		c-0.13-3.23,0.79-6.27,1.43-9.34c0.36-1.76,1.04-3.17,3.59-1.25c4.84,3.65,10.32,3.33,15.03-0.34c3.02-2.35,5.49-5.25,7.22-8.69
		c3.5-6.95,3.2-13.55-0.71-16.8c-4.46-3.71-11.18-3.17-17.39,1.63c-5.22,4.03-9.12,9.23-11.82,15.18
		c-3.72,8.18-9.86,14.09-17.18,18.85c-6.62,4.31-12.27,2.01-14.18-5.65c-0.92-3.67-1.17-7.51-1.97-11.22
		c-1.22-5.63-6.26-7.27-10.34-3.25c-2.21,2.19-3.98,4.86-5.73,7.46c-4.15,6.19-8.16,12.49-12.26,18.71
		c-0.5,0.75-0.89,1.99-2.17,1.56c-1.28-0.44-0.83-1.65-0.76-2.55c0.24-2.98,0.53-5.95,0.89-8.92c1.26-10.65,3.95-21.21,2.46-32.05
		c-0.78-5.65-3.99-7.37-9.46-5.47c-4.14,1.43-6.71,4.63-9.57,7.67c-1.96,2.08-3.58,7.08-5.45,5.95c-2.52-1.54,0.44-5.46,1.22-8.22
		c4.46-15.87-3.68-21.99-15.98-25.13c-8.33-2.13-16.87-1.62-25.32-0.48c-11.99,1.63-23.36,6.04-35.26,8.14
		c-18.95,3.33-37.38,2.3-54.64-6.88c-14.65-7.79-25.12-19.38-29.92-35.6c-0.45-1.51-1.78-3.26,1.19-3.63
		c1.14,0.36,2.29-0.15,3.35-0.07C341.63,436.87,346.64,433.62,352.06,435.03z M740.42,546.38c1.25-9.91,1.13-19.89,6.72-28.52
		c2.14-3.31,3.88-7.02,3.67-11.23c-0.1-2,0.05-4.21-2.61-4.69c-2.41-0.43-4.66-0.18-5.8,2.5c-0.84,1.98-2.04,3.87-2.51,5.94
		c-2,8.74-7.33,15.43-13.01,21.95c-4.58,5.26-9.26,10.39-14.81,14.7c-2.93,2.27-6.66,4.48-9.46,2.62c-2.28-1.52-1.12-6.02-0.27-8.93
		c2.1-7.27,4.64-14.42,7.2-21.55c0.93-2.59,2.23-5.87,0.27-7.46c-2.61-2.11-1.88-4.16-1.8-6.49c0.33-8.98-6.2-13.73-15.11-11.76
		c-16.44,3.63-30.36,29.43-28.92,42.44c0.51,4.66,3.82,7.73,8.44,8.21c6.34,0.65,11.21-2.2,15.77-6.04
		c2.41-2.03,4.45-4.57,7.96-6.13c-0.29,1.53-0.39,2.5-0.65,3.43c-0.97,3.51-1.71,7.02-1.74,10.72c-0.04,4.39,0.52,8.45,4.78,10.69
		c4.65,2.44,9.31,1.61,13.71-0.87c7.56-4.27,13.71-10.24,19.45-16.94c0,4.87,0,9.32,0,13.78c0,2.74,1.14,5.05,3.59,6.06
		c2.55,1.06,4.94-0.21,6.69-2.15c2.1-2.32,4.08-4.78,5.93-7.31c6.94-9.48,12.48-19.95,20.26-28.84c0.84-0.96,1.53-2.66,2.86-2.44
		c1.7,0.27,1.5,2.23,1.98,3.59c2.6,7.43,2.99,15.6,7.58,22.39c3.65,5.41,9.13,7.59,15.33,5.96c5.37-1.42,8.92-5.35,12.88-9.21
		c1.49,6.47,4.31,11.52,11.42,12.18c7.38,0.69,12.15-3.3,15.71-9.24c2.4-4.01,4.27-8.25,5.02-12.87c0.37-2.26,1.23-3.56,3.52-2.75
		c5.85,2.06,11.53,0.48,17.58-0.85c-1.03,5.03-1.7,9.77-1.4,14.58c0.44,7.08,3.72,10.06,10.69,10.22c4.26,0.1,7.74-1.6,11.03-3.92
		c5.41-3.8,9.99-8.56,14.72-13.31c2.94,8.2,6.83,10.66,14.57,9.11c3.3-0.66,6.13-2.53,8.7-4.66c3.41-2.82,6.73-5.75,10.55-9.02
		c-1.08,4.39-2.71,8.11-3.04,12.18c-0.45,5.41-1.06,11.03,4.37,14.23c5.48,3.23,10.92,1.23,15.92-1.9c1.97-1.23,3.97-2.48,5.71-4
		c8.64-7.56,15.97-16.32,22.56-25.67c2.63-3.73,5.94-5.93,10.28-7.16c6.78-1.92,13.24-0.18,19.47,1.8
		c22.68,7.23,45.93,10.14,69.59,9.17c22.46-0.92,44.93-0.93,67.39-1.37c37.13-0.74,74.27-1.03,111.41-1.54
		c2.49-0.03,4.97-0.32,7.45-0.55c2.02-0.18,2.75-1.46,2.93-3.37c0.37-3.93-1.98-4.2-5-4.16c-30.81,0.4-61.62,0.66-92.43,1.11
		c-30.13,0.44-60.27,1.01-90.4,1.6c-11.49,0.23-22.94-0.51-34.39-1.2c-14.62-0.88-28.21-6.62-42.5-8.9
		c-13.74-2.2-23.42-1.18-31.54,11.57c-5.19,8.15-11.86,15.16-18.92,21.74c-2.53,2.36-5.15,4.81-8.52,5.91
		c-4.54,1.49-5.99,0.02-5.56-4.72c0.83-9.21,4.83-17.44,7.78-25.99c0.92-2.67,2.4-5.78-0.06-7.72c-2.16-1.7-1.64-3.12-1.48-5.06
		c0.86-10.05-5.96-15.26-15.84-12.49c-9.67,2.72-15.91,9.52-20.67,17.62c-6.76,11.49-16.05,20.54-26.03,29.02
		c-2.11,1.79-4.44,3.42-7.45,3.67c-2.47,0.21-3.92-0.48-3.84-3.16c0.05-1.82-0.06-3.69,0.3-5.45c1.55-7.74,4.3-15.11,7.44-22.33
		c1.05-2.43,2.7-5.29-0.7-6.85c-3.16-1.45-5.05,0.42-6.34,3.59c-1.67,4.14-2.98,8.71-8.62,9.68c-3.87,0.66-7.65,1.83-11.63,1.4
		c-3.55-0.39-6.6-0.86-6.74-5.88c-0.17-5.85-4.95-9.65-9.37-11.75c-4.91-2.33-9.44,1.27-12.81,5.26c-1.38,1.63-2.64,3.39-3.76,5.21
		c-5.28,8.58-9.06,18.13-16.54,25.27c-6.33,6.04-11.38,4.9-14.02-3.35c-1.96-6.12-3.56-12.36-5.39-18.52
		c-2.22-7.48-9.64-10.27-16.06-3.62c-4.52,4.68-8.08,9.99-11.7,15.3C748.19,534.68,744.32,540.54,740.42,546.38z M874.06,496.03
		c0.41,2.67,1.38,5.27,4.54,5.57c2.23,0.21,4.6-0.9,4.21-3.63c-0.38-2.71,0.33-4.63,1.84-6.79c1.17-1.68,0.76-3.79-1.09-5.3
		c-2.08-1.71-3.63-0.68-5.14,0.84C875.9,489.26,874.37,492.28,874.06,496.03z"/>
	<path class="st1" d="M740.42,546.38c3.9-5.84,7.77-11.71,11.72-17.51c3.62-5.31,7.18-10.62,11.7-15.3
		c6.42-6.65,13.83-3.86,16.06,3.62c1.83,6.16,3.43,12.4,5.39,18.52c2.64,8.25,7.7,9.4,14.02,3.35c7.47-7.14,11.26-16.69,16.54-25.27
		c1.12-1.82,2.38-3.57,3.76-5.21c3.37-3.99,7.9-7.59,12.81-5.26c4.42,2.1,9.2,5.9,9.37,11.75c0.14,5.02,3.19,5.49,6.74,5.88
		c3.98,0.43,7.76-0.74,11.63-1.4c5.64-0.97,6.94-5.54,8.62-9.68c1.28-3.17,3.18-5.04,6.34-3.59c3.4,1.56,1.75,4.42,0.7,6.85
		c-3.13,7.23-5.88,14.59-7.44,22.33c-0.35,1.77-0.25,3.63-0.3,5.45c-0.08,2.68,1.37,3.37,3.84,3.16c3.01-0.26,5.35-1.88,7.45-3.67
		c9.98-8.48,19.27-17.53,26.03-29.02c4.76-8.1,11-14.9,20.67-17.62c9.88-2.78,16.7,2.43,15.84,12.49c-0.17,1.94-0.68,3.37,1.48,5.06
		c2.47,1.94,0.98,5.05,0.06,7.72c-2.94,8.55-6.95,16.78-7.78,25.99c-0.43,4.74,1.02,6.21,5.56,4.72c3.36-1.1,5.98-3.55,8.52-5.91
		c7.06-6.58,13.73-13.59,18.92-21.74c8.12-12.75,17.81-13.77,31.54-11.57c14.29,2.28,27.88,8.02,42.5,8.9
		c11.45,0.69,22.9,1.43,34.39,1.2c30.13-0.6,60.26-1.17,90.4-1.6c30.81-0.45,61.62-0.71,92.43-1.11c3.03-0.04,5.37,0.23,5,4.16
		c-0.18,1.91-0.91,3.18-2.93,3.37c-2.48,0.23-4.96,0.52-7.45,0.55c-37.14,0.51-74.28,0.8-111.41,1.54
		c-22.46,0.45-44.93,0.45-67.39,1.37c-23.66,0.97-46.91-1.95-69.59-9.17c-6.23-1.99-12.69-3.72-19.47-1.8
		c-4.34,1.23-7.65,3.43-10.28,7.16c-6.59,9.35-13.92,18.11-22.56,25.67c-1.74,1.52-3.74,2.77-5.71,4c-5,3.13-10.44,5.13-15.92,1.9
		c-5.43-3.2-4.81-8.83-4.37-14.23c0.33-4.06,1.96-7.78,3.04-12.18c-3.82,3.27-7.14,6.2-10.55,9.02c-2.57,2.13-5.4,4-8.7,4.66
		c-7.74,1.55-11.64-0.91-14.57-9.11c-4.74,4.75-9.32,9.51-14.72,13.31c-3.29,2.31-6.78,4.02-11.03,3.92
		c-6.97-0.16-10.25-3.14-10.69-10.22c-0.3-4.81,0.37-9.55,1.4-14.58c-6.06,1.33-11.73,2.91-17.58,0.85
		c-2.29-0.81-3.15,0.49-3.52,2.75c-0.75,4.62-2.62,8.86-5.02,12.87c-3.56,5.95-8.33,9.93-15.71,9.24
		c-7.11-0.66-9.93-5.71-11.42-12.18c-3.96,3.87-7.51,7.8-12.88,9.21c-6.2,1.64-11.67-0.55-15.33-5.96
		c-4.59-6.79-4.97-14.96-7.58-22.39c-0.48-1.36-0.28-3.32-1.98-3.59c-1.33-0.21-2.02,1.48-2.86,2.44
		c-7.78,8.89-13.32,19.36-20.26,28.84c-1.85,2.53-3.83,4.98-5.93,7.31c-1.76,1.94-4.14,3.21-6.69,2.15
		c-2.45-1.01-3.59-3.32-3.59-6.06c0-4.45,0-8.9,0-13.78c-5.74,6.71-11.89,12.68-19.45,16.94c-4.4,2.48-9.06,3.31-13.71,0.87
		c-4.26-2.24-4.83-6.3-4.78-10.69c0.04-3.7,0.77-7.21,1.74-10.72c0.26-0.93,0.36-1.89,0.65-3.43c-3.51,1.56-5.55,4.11-7.96,6.13
		c-4.57,3.85-9.44,6.7-15.77,6.04c-4.62-0.48-7.93-3.55-8.44-8.21c-1.43-13.01,12.48-38.81,28.92-42.44
		c8.91-1.97,15.44,2.78,15.11,11.76c-0.08,2.32-0.81,4.38,1.8,6.49c1.95,1.58,0.66,4.86-0.27,7.46c-2.57,7.13-5.1,14.28-7.2,21.55
		c-0.84,2.92-2.01,7.42,0.27,8.93c2.8,1.86,6.53-0.34,9.46-2.62c5.55-4.31,10.23-9.44,14.81-14.7c5.68-6.52,11.01-13.21,13.01-21.95
		c0.47-2.06,1.67-3.96,2.51-5.94c1.14-2.68,3.39-2.93,5.8-2.5c2.66,0.47,2.51,2.69,2.61,4.69c0.21,4.21-1.52,7.92-3.67,11.23
		C741.55,526.49,741.67,536.47,740.42,546.38z M933.91,506.73c0.13-6.04-1.4-7.04-7.08-4.91c-2.04,0.77-3.93,1.76-5.57,3.2
		c-6.75,5.9-11.71,12.98-14.43,21.58c-1,3.17-2.3,7.61,0.01,9.19c2.77,1.91,6.5-0.76,9.26-3.03c6.94-5.7,12.65-12.6,18.69-19.18
		c0.64-0.7,1.76-1.82,0.6-2.35C932.85,510.1,934.39,508.08,933.91,506.73z M699.97,506.69c0.31-5.61-1.61-7.06-6.68-5.15
		c-1.69,0.64-3.38,1.48-4.78,2.6c-8.11,6.49-13.54,14.82-16.15,24.86c-0.58,2.22-1.63,5.47,0.65,6.81c2.23,1.31,5.11,0.03,7.3-1.73
		c0.13-0.1,0.3-0.15,0.43-0.25c7.85-5.69,13.63-13.48,20.41-20.26c0.85-0.85,1.54-1.77-0.1-2.72
		C699.19,509.82,700.11,507.96,699.97,506.69z M827.21,511.84c-7.45,8.39-11.04,17.25-10.33,27.82c0.15,2.3,0.47,4.45,2.86,5.12
		c2.24,0.62,4.56,0.46,6.44-1.44c2.96-3,4.58-6.63,6.04-10.54c1.98-5.29,3.04-9.97-2.31-13.99
		C828.07,517.41,828.18,514.75,827.21,511.84z"/>
	<path class="st2" d="M332.92,436.5c-2.97,0.37-1.64,2.11-1.19,3.63c4.79,16.22,15.27,27.8,29.92,35.6
		c17.26,9.18,35.69,10.21,54.64,6.88c11.9-2.09,23.27-6.51,35.26-8.14c8.44-1.14,16.99-1.65,25.32,0.48
		c12.3,3.14,20.44,9.26,15.98,25.13c-0.78,2.76-3.74,6.69-1.22,8.22c1.86,1.13,3.49-3.87,5.45-5.95c2.86-3.04,5.43-6.24,9.57-7.67
		c5.47-1.89,8.68-0.18,9.46,5.47c1.49,10.85-1.2,21.4-2.46,32.05c-0.35,2.97-0.65,5.94-0.89,8.92c-0.07,0.9-0.52,2.11,0.76,2.55
		c1.28,0.44,1.68-0.8,2.17-1.56c4.11-6.22,8.11-12.52,12.26-18.71c1.75-2.6,3.52-5.28,5.73-7.46c4.07-4.03,9.12-2.38,10.34,3.25
		c0.8,3.71,1.06,7.54,1.97,11.22c1.91,7.66,7.56,9.96,14.18,5.65c7.32-4.77,13.46-10.67,17.18-18.85
		c2.71-5.96,6.61-11.15,11.82-15.18c6.21-4.8,12.93-5.33,17.39-1.63c3.91,3.25,4.21,9.85,0.71,16.8c-1.73,3.44-4.2,6.35-7.22,8.69
		c-4.72,3.67-10.19,3.99-15.03,0.34c-2.55-1.92-3.22-0.51-3.59,1.25c-0.64,3.07-1.56,6.11-1.43,9.34c0.26,6.37,3.93,9.31,10.1,7.71
		c7.35-1.91,12.89-6.84,18.01-11.96c16.71-16.68,29.71-36.2,42.17-56.11c2.26-3.61,4.55-7.21,7.16-11.34
		c-8.68-0.49-16.48,1.03-24.29,2c-7.01,0.87-13.89,2.78-20.89,3.76c-3.17,0.45-5.41,2.37-8.04,3.63c-4.19,2.02-8.51,2.78-13.05,2.76
		c-2.36-0.01-4.32-0.73-4.81-3.39c-0.51-2.72,1.32-4.03,3.39-4.79c10.26-3.77,20.82-6.47,31.61-8.15
		c12.09-1.89,24.17-3.9,36.45-3.98c2.94-0.02,3.89-1.66,4.7-4.09c3.57-10.64,7.19-21.26,12.43-31.23c1.31-2.49,2.62-5,4.79-6.91
		c1.74-1.52,3.7-2.27,5.96-1.4c2.54,0.97,2.61,3.18,2.49,5.4c-0.33,6.48-3.47,12.01-6.2,17.62c-3.15,6.48-6.67,12.78-9.82,18.75
		c9.58,0,19.03-0.04,28.48,0.02c3.49,0.02,6.99,0.23,10.48,0.44c2.67,0.16,5.15,0.69,4.82,4.24c-0.29,3.15-2.52,3.47-5.06,3.4
		c-13.49-0.4-26.97-0.23-40.45,0.72c-2.79,0.2-3.7,0.83-4.56,3.65c-7.05,23.16-13.83,46.39-18.39,70.2
		c-2.62,13.66-5.29,27.32-5.31,41.31c0,3.64,0.18,7.25,2.24,10.54c1.46,2.33,0.87,4.72-1.56,5.92c-2.56,1.26-4.36-0.34-5.59-2.59
		c-2.38-4.38-2.65-9.17-2.68-13.99c-0.1-17.5,3.28-34.55,7.02-51.52c2.53-11.49,5.53-22.87,7.82-34.59
		c-4.2,6-8.22,12.12-12.62,17.96c-9.91,13.12-19.76,26.32-33.46,35.94c-3.29,2.31-6.75,4.22-10.66,5.23
		c-11.05,2.85-17.22-1.24-21.04-13.91c-18.78,14.18-31.98,8.67-35.02-13.16c-3.42,3.55-5.42,7.74-7.88,11.59
		c-3.3,5.19-6.56,10.38-10.5,15.13c-1.1,1.32-2.3,2.39-3.69,3.26c-4.93,3.1-8.99,1.45-9.84-4.26c-1.16-7.82,0.22-15.61,1.52-23.26
		c1.36-8,1.52-16.07,2.79-24.48c-2.71,0.35-3.88,2.04-5.16,3.65c-9.62,12.15-16.14,26.07-22.85,39.88c-0.72,1.49-1.63,2.9-2.23,4.43
		c-1,2.55-2.76,3.85-5.41,3.14c-2.59-0.69-3.32-2.92-3.39-5.35c-0.22-7.36,1.56-14.49,3.2-21.54c2.38-10.25,4.23-20.79,9.83-29.99
		c4.67-7.67,3.4-11.23-5.38-14.11c-9.92-3.25-19.93-2.38-29.84-0.11c-13.6,3.12-26.95,7.8-40.87,8.98
		c-33.65,2.86-72.99-12.71-82.96-51.65c-0.64-2.52-1.84-4.52-4.94-4.21c3.22-2.03,1.54-4.66,0.88-7.16
		c-0.1-2.39-0.21-4.79-0.31-7.18c-1.39-2.04,0.63-4.84-1.51-6.7c-0.05-2.64-0.1-5.27-0.16-7.91c0.69-2.35,1.55-4.67,0.95-7.19
		c1.21-7.5,2.43-15,3.64-22.5c0.13-0.77,0.26-1.55,0.39-2.32c0.04-0.99,0.08-1.98,0.12-2.97c2.24-1.08,1.55-3.74,2.87-5.32
		c2.09,0.86,0.44,3.68,2.59,5.1c0.24-1.57,0.4-2.69,0.57-3.81l-0.04,0.04c1.4-0.13,1.79,0.83,2.05,1.92
		c-1.33,2.22-1.36,4.72-1.62,7.18c-0.74,4.42-2.73,8.64-2.23,13.96c0.98-2.25,1.32-4.2,2.46-5.4c1.61-1.69,1.35-5.72,5.34-4.67
		c-0.95,8.64-3.04,17.14-3.26,25.88c-1.12-0.14-2.65,0.15-3.3-0.48c-4.15-4.05-3.29,0.1-3.49,2.11c-0.45,4.53-0.27,9.04,1.04,13.45
		c0.09,0.53,0.17,1.06,0.26,1.59c-1.81,5.23-0.04,7.63,5.26,7.12C332.01,432.64,332.46,434.57,332.92,436.5z M601.83,509.86
		c0.45-3.71-1.61-5.06-5.06-3.41c-3.63,1.74-6.35,4.65-8.5,8.02c-1.13,1.77-0.58,3.44,0.87,4.9c1.43,1.44,2.85,2.02,4.85,0.99
		C598.5,518.05,600.29,513.85,601.83,509.86z M483.56,523.11c1.1-2.14,3.56-3.56,2.82-6.36c-0.05-0.18-0.99-0.38-1.25-0.2
		C482.83,518.2,482.73,520.56,483.56,523.11z M488.7,513.5c0.91-0.18,1.45-0.8,1.66-1.63c0.09-0.34-0.16-1.09-0.37-1.13
		c-0.89-0.18-1.5,0.36-1.83,1.15C487.9,512.55,488.09,513.12,488.7,513.5z M512.27,544.36c0.11,0.2,0.22,0.41,0.33,0.62
		c0.1-0.11,0.3-0.24,0.28-0.32c-0.05-0.22-0.19-0.43-0.29-0.64C512.49,544.12,512.39,544.23,512.27,544.36z"/>
	<path class="st3" d="M292.49,343.21c-5.76-14.68-6.44-29.58-1.36-44.51c1.6-4.69,3.52-9.59,8.74-11.8
		c-0.12,1.83,0.99,3.02,2.2,4.15c-0.64,0.69-1.29,1.39-1.93,2.08c-1.33-1.37-2.51-2.7-3.77,0.2c-0.95,2.19-0.97,4.02,0.79,5.72
		c-4.39,9.88-3.29,20.15-2.07,30.42c0.49-5.52-1.13-11.16,0.85-16.6c7.93-0.59,1.12-3.82,1.05-5.84c0.01-3.05,1.04-5.72,3.01-8.04
		c0.82,2.77-1.18,5.35-0.77,8.12c1.1-0.42,1.99-0.77,2.88-1.11c1.04,3.04-2.53,6.1,0.05,9.13c-1.93,4.19,0.02,8.42-0.11,12.62
		c0.24,0.78-1.66,2.44,0.93,2.25c0.26,3.59,1.38,6.92,3.11,10.06c1.08,5.33,3.79,9.64,8.06,12.98c4.69,2.64,1.39,6.85,2.02,10.28
		c-0.77,2.57-0.02,6.1-4.15,6.54c-1.54-1.06-2.2-3.67-4.86-2.76c0.02-2.06-0.28-3.9-2.93-4.03c-0.08-2.66-0.16-5.32-0.24-7.98
		c0.26-0.25,0.52-0.51,0.79-0.77c0.41,0.41,0.84,0.91,1.39,0.29c0.09-0.1-0.31-0.65-0.48-0.98c-3.85-7.06-7.34-14.29-10.47-21.81
		C294.3,335.63,293.4,339.42,292.49,343.21z M307.73,357.38c0.33,0.11,0.67,0.23,1,0.34c-0.09-0.36-0.17-0.72-0.26-1.07
		c-0.36-0.16-0.73-0.32-1.09-0.48C307.5,356.58,307.61,356.98,307.73,357.38z"/>
	<path class="st4" d="M302.07,291.06c-1.21-1.13-2.31-2.32-2.2-4.15c0,0,0.13,0.08,0.13,0.08c2.66-0.23,3.98-1.69,3.98-4.36
		c4.29-5.57,10.69-7.78,16.98-9.17c12.58-2.77,25.23-2.1,37.63,1.75c0.88,0.27,1.4,0.8,1.6,1.68c-1.81-0.03-3.67,0.15-5.43-0.15
		c-1.76-0.31-3.2-1.7-5.15-1.67c-2.4,0.03-4.69,1.24-5.11,3.17c-0.61,2.76,2.64,1.51,4,2.42c0.95,0.64,2.39,0.49,3.46,1.01
		c0.24,0.12-2.87,0.94-0.58,2.12c0.81,0.42,2.77-0.83,3.22-0.36c1.58,1.66,6.67-1.7,5.43,3.75c-7.99-0.83-15.6-3.52-23.88-3.35
		c-13.88,0.29-24.67,5.15-31.76,17.34c-0.65-0.41-1.3-0.82-1.96-1.22c-0.59,1.56-0.75,3.04,0.74,4.23c-0.35,0.62-0.7,1.23-1.05,1.85
		c-0.89,0.34-1.78,0.69-2.88,1.11c-0.42-2.78,1.59-5.36,0.77-8.12c0,0,0.01,0.02,0.01,0.02c0.73-0.26,0.78-0.58,0.07-0.96
		c0.57-3.04,4.32-4.46,4.06-7.93c1.28-0.07,1.92-0.76,1.97-2.03c0.84,0,1.57-0.2,2.02-1c0.13-0.17,0.26-0.35,0.4-0.52
		c-0.17,0.13-0.35,0.26-0.52,0.39c-0.83,0.02-1.55,0.23-1.96,1.04c-1.22,0.1-1.92,0.73-2.03,1.98
		C303.36,290.34,302.72,290.7,302.07,291.06z M311.7,285.26c-0.11-0.27-0.14-0.65-0.32-0.75c-0.17-0.1-0.5,0.09-0.77,0.16
		c0.13,0.33,0.25,0.65,0.38,0.98C311.22,285.52,311.46,285.39,311.7,285.26z"/>
	<path class="st5" d="M360.02,287.16c1.25-5.46-3.84-2.09-5.43-3.75c-0.44-0.46-2.41,0.78-3.22,0.36c-2.29-1.19,0.82-2.01,0.58-2.12
		c-1.07-0.52-2.52-0.37-3.46-1.01c-1.35-0.91-4.6,0.35-4-2.42c0.42-1.92,2.71-3.13,5.11-3.17c1.94-0.03,3.39,1.37,5.15,1.67
		c1.77,0.31,3.62,0.12,5.43,0.15c0,0-0.08,0.1-0.08,0.1c1.16,2.27,2.75,2.81,4.86,1.21c2.67,1.03,5.35,2.06,8.02,3.09
		c0.23,1.75,1.55,1.82,2.88,1.87c0.84,1.03,2.03,0.84,3.16,0.89c0.69-0.01,1.38-0.02,2.08-0.03c0.96,0,1.92,0,2.89-0.01
		c1.03,0.01,2.05,0.03,3.08,0.04c0.65,0.03,1.29,0.06,1.94,0.09c-1.67,1.62-3.78,0.63-5.67,0.94c-0.81,0.13-1.72,0.1-1.99,1.1
		c-0.36,1.34,0.66,1.58,1.6,1.98c3.62,1.53,6.76,3.96,10.69,4.99c5.43,1.42,8.57,6.12,12.25,9.85c0.57,0.57-2.66,2.75-1.84,5.07
		l0.01-0.01c-0.3-0.03-0.61-0.05-0.91-0.04c0,0-0.08-0.03-0.08-0.03c-0.07-1.89-1.1-2.83-2.93-3.02c-0.1-1.82-1.46-2.8-2.62-3.9
		c-0.59-0.55-1.47-1.16-1.97-0.22c-0.27,0.5,0.31,1.47,0.51,2.22c-1.59-0.17-3.66,0.63-4-2.02c0.08-0.14,0.16-0.28,0.24-0.41
		c-0.08,0.14-0.16,0.28-0.24,0.42c-4.57-1.97-7.31-6.73-12.8-7.63c-3.58-0.59-5.84,3.5-9.31,1.67c-0.59,0.01-1.18,0.01-1.77,0.02
		c-1.37,0.05-2.13,0.63-1.89,2.12l-0.05,0.06c-0.91-0.04-1.9-0.18-1.42,1.3c-0.1,0.15-0.25,0.24-0.43,0.27
		c-0.21-0.03-0.42-0.07-0.63-0.1c0.04,0.21,0.07,0.42,0.11,0.63c-0.02,0.23-0.14,0.38-0.36,0.47c-1.45-0.82-2.88-1.28-3.36,0.96
		c-0.27,1.27-0.72,2.16-2.12,2.26c-1.17-0.72-2.39-1.24-3.81-0.95c-0.05-0.36-0.1-0.73-0.15-1.09c1.87-1.62,4.05-3.03,3.96-5.96
		c0.54-0.03,1.08-0.07,1.62-0.1c1.47-1.93,4.98-3.72,0.42-6.07C360.05,288.33,360.03,287.75,360.02,287.16z M361.55,282.54
		c0.01,0.33,0.01,0.66,0.02,0.99c0.77,0.2,1.57,0.32,2.29,0.64c0.87,0.39,1.62,1.03,2.49,1.41c1.8,0.78,3.96,0.35,3.06-1.71
		c-0.89-2.02-3.84-1.99-6.17-1.74C362.67,282.19,362.12,282.4,361.55,282.54z M361.24,280.3c-0.15,0.04-0.31,0.06-0.43,0.14
		c-0.04,0.03,0.06,0.24,0.1,0.36c0.15-0.04,0.31-0.06,0.43-0.14C361.37,280.63,361.27,280.43,361.24,280.3z"/>
	<path class="st6" d="M292.49,343.21c0.9-3.79,1.81-7.58,2.71-11.37c3.13,7.52,6.62,14.75,10.47,21.81c-0.3,0.23-0.6,0.46-0.9,0.69
		c-0.26,0.25-0.52,0.51-0.78,0.76c-1.35,5.03-1.86,10.04,0.24,15.01c0.28,0.27,0.56,0.53,0.85,0.8c0.76,2.32,2.74,4.28,2.01,7.03
		c-1.25,0.98-0.73,2.43-1.04,3.68c-1.1,4.55-1.64,9.4-6,12.39c0.41-2.69,0.03-5.57-1.24-7.65c-2.35-3.84-2.3-7.94-3.12-12.03
		c-0.47-2.31,0-5.7-2.97-7.25c-1.09-0.85-0.63-1.98-0.55-3.04c3.05-1.65,2.96-3.31,0.02-4.99
		C292.28,353.77,292.39,348.49,292.49,343.21z M300.59,386.32c0.15-0.29,0.38-0.55,0.38-0.81c-0.01-0.25-0.26-0.5-0.41-0.75
		c-0.14,0.26-0.38,0.51-0.38,0.77C300.18,385.79,300.43,386.04,300.59,386.32z"/>
	<path class="st7" d="M404.05,308.05c-0.82-2.32,2.41-4.49,1.84-5.07c-3.68-3.73-6.82-8.43-12.25-9.85
		c-3.92-1.03-7.07-3.46-10.69-4.99c-0.94-0.4-1.96-0.64-1.6-1.98c0.27-1,1.18-0.97,1.99-1.1c1.89-0.31,4,0.69,5.67-0.94
		c2.4-2.72,3.68,0.84,5.55,1.16c8.07,1.39,13.04,7.49,18.26,13.1c0.99,1.07,1.29,2.28,1.24,3.65c-2.14,0.22-2.26,1.81-1.91,3.29
		c1.21,5.1,2.62,10.15,3.87,15.25c0.28,1.14,1.59,2.38-0.03,3.54c-4.14-4.93-8.01-10.11-12.99-14.27c0.05-0.61,0.1-1.23,0.14-1.84
		C403.45,307.99,403.75,308.01,404.05,308.05c0.14,0.07,0.28,0.14,0.41,0.21C404.32,308.19,404.19,308.12,404.05,308.05z"/>
	<path class="st8" d="M422.21,382c4.47,0.97,8.08,3.66,11.35,6.52c2.7,2.36,2.52,6.06-0.05,8.33c-5.35,4.72-10.92,9.38-18.51,10.17
		c-0.07-0.36-0.14-0.71-0.21-1.07c3.7-6.44,5.31-13.5,6.06-20.8C421.3,384.1,421.76,383.05,422.21,382z"/>
	<path class="st6" d="M414.79,405.95c0.07,0.36,0.14,0.71,0.21,1.07c-3.32,4.97-5.45,10.7-9.74,15.06c-0.92,0.94-1.59,2.07-3.1,2.03
		c-0.23-0.41-0.45-0.81-0.68-1.22c-0.79,3.78-7.16,3.19-6.42,8.17c-3.11,3-6.95,4.64-10.97,5.95c-1.4-2.39-3.8,0.18-5.62-0.82
		c1.6-2.35,6.62-0.67,5.48-5.38c0.01-0.25,0.03-0.49,0.06-0.74c6.35-1.63,10.07-6.3,13.31-11.52c6.12-1.99,9-6.87,11.07-12.45
		c2.6-2.07,2-5.67,3.89-8.08c1.92,4.22-1.77,7.25-2.33,10.94c-0.24,0.33-0.48,0.66-0.69,1.01c-0.01,0.02,0.32,0.24,0.49,0.37
		c0.14-0.4,0.29-0.79,0.43-1.19C412.79,409.62,411.76,404.85,414.79,405.95z"/>
	<path class="st9" d="M422.21,382c-0.45,1.05-0.91,2.1-1.36,3.15c-2.37,4.06-4.51,8.29-8.15,11.44c0,0-0.02-0.3-0.02-0.3
		c-2.41-1.13-3.97,1.81-6.34,1.39c-0.79-2.32,1.52-4.31,0.62-6.56c1.57-1.24,4.3,2.41,5.3-1.26c1.16,0.13,1.86-0.38,2.08-1.52
		c0.85-4.28,2.48-8.46,1.44-12.95c0.31-0.14,0.61-0.28,0.92-0.42c2.61-3.2,2.1-7.16,2.53-10.86c1.4-0.04,0.21,2.03,1.72,1.8
		c0.51-3.1-0.84-6.7,2.41-9.06C422.97,365.23,422.59,373.61,422.21,382z"/>
	<path class="st3" d="M423.35,356.84c-3.25,2.37-1.9,5.96-2.41,9.06c-1.51,0.23-0.32-1.83-1.72-1.8c-0.42,3.7,0.08,7.66-2.52,10.86
		c-0.04-1.08-0.07-2.15-0.11-3.23c0.22-4.94,0.44-9.89,0.65-14.83c1.92-5.96,0.58-12.04,0.73-18.07c2.64,0,1.93-2.01,2.08-3.48
		c0.28-2.7,0.36-5.48,2.94-7.26C424.52,337.67,424.66,347.25,423.35,356.84z"/>
	<path class="st10" d="M292.71,367.07c2.97,1.55,2.51,4.94,2.97,7.25c0.82,4.09,0.78,8.19,3.12,12.03c1.27,2.08,1.65,4.96,1.24,7.65
		c0,0,0,0,0,0c-0.7,0.34-0.64,0.72-0.04,1.11c1.7,2.96-1.78,4.26-2.12,6.64c-1.08,7.46-1.07,14.72,2.56,21.64
		c1.68-0.13,1.68-2.69,3.57-2.27c0.01,3.25,0.02,6.5,0.03,9.75c-8.31-6.15-8.84-15.17-8.73-24.28c0.04-3.23,0.58-6.62,1.72-9.63
		c2.44-6.46-1.58-11.83-2.48-17.69C293.93,375.21,292.95,371.2,292.71,367.07z"/>
	<path class="st5" d="M422.98,328.1c-2.57,1.77-2.65,4.55-2.94,7.26c-0.16,1.48,0.55,3.48-2.08,3.49c0.01-0.22,0.03-0.43,0.07-0.65
		c-0.06-2.03-0.12-4.07-0.18-6.1c0.18-0.84,0-1.55-0.71-2.08c-0.14-1.09,0.14-2.34-1.07-3.06c-0.03-0.95-0.06-1.9-0.09-2.85
		c1.62-1.16,0.31-2.4,0.03-3.54c-1.25-5.09-2.66-10.14-3.87-15.25c-0.35-1.48-0.23-3.07,1.91-3.29
		C420.07,309.69,421.79,318.8,422.98,328.1z"/>
	<path class="st6" d="M353.42,436.13c-0.77,0.03-1.32-0.22-1.36-1.1c-1.08-1.05-2.16-2.1-3.24-3.15c-0.59-2.44-1.38-4.63-4.65-3.63
		c-0.02-0.41-0.05-0.82-0.07-1.23c0.47-0.8,1.24-0.97,2.09-0.95c2.11,0.9,4.25,3.63,6.28-0.1l0.31-0.02l0.3,0.07
		c0.71,4.13,3.1,5.07,6.89,3.82c1.99-0.65,4.11-0.92,6.18-1.36c-1.42,1.72-2.39,3.26,1,3.8c0.69,0.11,1.27,0.94,1.91,1.44
		c0.13,4.85-4.28,7.03-9.23,4.41C357.77,437.04,355.93,435.61,353.42,436.13z"/>
	<path class="st11" d="M304.04,430.88c-0.01-3.25-0.02-6.5-0.03-9.75c-0.01-0.78-0.02-1.55-0.03-2.33c0.12-0.2,0.14-0.41,0.05-0.63
		c2.45-0.82,2.17,1.6,2.76,2.59c2.99,5.07,5.98,9.9,13.15,8.08c0.65,2.5,2.34,5.13-0.88,7.16C313.82,435,307.7,436.52,304.04,430.88
		z"/>
	<path class="st2" d="M874.06,496.03c0.3-3.75,1.84-6.77,4.37-9.31c1.51-1.52,3.06-2.55,5.14-0.84c1.84,1.51,2.26,3.62,1.09,5.3
		c-1.51,2.16-2.22,4.08-1.84,6.79c0.39,2.73-1.98,3.84-4.21,3.63C875.45,501.3,874.48,498.69,874.06,496.03z"/>
	<path class="st10" d="M353.42,436.13c2.51-0.52,4.35,0.92,6.4,2c4.96,2.62,9.36,0.44,9.23-4.4c5.33,0.88,10.26-0.28,14.91-2.91
		c1.14,4.71-3.89,3.03-5.48,5.38c1.82,1,4.22-1.56,5.62,0.82c-8.79,3.85-17.74,5.78-27.07,2
		C355.59,438.43,353.73,438.19,353.42,436.13z"/>
	<path class="st10" d="M348.81,431.88c1.08,1.05,2.16,2.1,3.24,3.15c-5.42-1.41-10.43,1.84-15.79,1.41
		c-1.05-0.09-2.21,0.42-3.35,0.07c-0.46-1.93-0.91-3.86-1.37-5.79c0.89-0.77,1.62-0.22,2.36,0.28c0.3,1.3-0.72,3.34,2.4,2.61
		C340.38,432.65,344.73,433.12,348.81,431.88z"/>
	<path class="st10" d="M395.06,431.06c-0.74-4.98,5.63-4.39,6.42-8.17c0.23,0.41,0.45,0.81,0.68,1.22
		C400.8,427.45,397.9,429.23,395.06,431.06z"/>
	<path class="st10" d="M292.18,359.04c2.94,1.67,3.03,3.34-0.02,4.99C292.17,362.37,292.17,360.7,292.18,359.04z"/>
	<path class="st3" d="M303.98,282.63c0,2.67-1.32,4.12-3.98,4.36C300.05,284.36,302.13,283.6,303.98,282.63z"/>
	<path class="st4" d="M364.97,278.19c-2.12,1.6-3.71,1.06-4.86-1.21C361.73,277.39,363.35,277.79,364.97,278.19z"/>
	<path class="st7" d="M375.88,283.14c-1.34-0.04-2.65-0.12-2.88-1.87C374.49,281.08,375.96,280.91,375.88,283.14z"/>
	<path class="st7" d="M387.08,284.04c-1.03-0.01-2.05-0.03-3.08-0.04C385.04,282.86,386.07,282.81,387.08,284.04z"/>
	<path class="st7" d="M381.11,284c-0.69,0.01-1.38,0.02-2.08,0.03C379.71,283.07,380.4,283.07,381.11,284z"/>
	<path class="st12" d="M933.91,506.73c0.48,1.35-1.06,3.37,1.48,4.51c1.17,0.53,0.04,1.65-0.6,2.35
		c-6.04,6.58-11.75,13.47-18.69,19.18c-2.76,2.27-6.49,4.93-9.26,3.03c-2.31-1.58-1.01-6.02-0.01-9.19
		c2.72-8.6,7.68-15.69,14.43-21.58c1.64-1.43,3.53-2.43,5.57-3.2C932.52,499.69,934.04,500.69,933.91,506.73z"/>
	<path class="st12" d="M699.97,506.69c0.15,1.27-0.78,3.13,1.07,4.19c1.64,0.94,0.95,1.86,0.1,2.72
		c-6.78,6.78-12.56,14.56-20.41,20.26c-0.13,0.1-0.3,0.14-0.43,0.25c-2.18,1.76-5.06,3.04-7.3,1.73c-2.28-1.34-1.22-4.6-0.65-6.81
		c2.61-10.04,8.04-18.37,16.15-24.86c1.4-1.12,3.09-1.97,4.78-2.6C698.36,499.64,700.28,501.09,699.97,506.69z"/>
	<path class="st12" d="M827.21,511.84c0.97,2.9,0.86,5.57,2.71,6.96c5.35,4.02,4.29,8.7,2.31,13.99c-1.46,3.91-3.08,7.55-6.04,10.54
		c-1.88,1.91-4.21,2.07-6.44,1.44c-2.39-0.67-2.71-2.82-2.86-5.12C816.17,529.09,819.76,520.23,827.21,511.84z"/>
	<path class="st13" d="M319.95,428.84c-7.17,1.82-10.16-3.02-13.15-8.08c-0.59-0.99-0.31-3.41-2.76-2.59
		c-0.22-0.13-0.44-0.25-0.66-0.37c-0.19,0.57,0.07,0.87,0.6,1c0.01,0.78,0.02,1.55,0.03,2.33c-1.89-0.42-1.89,2.15-3.57,2.27
		c-3.63-6.92-3.63-14.19-2.56-21.64c0.34-2.38,3.82-3.68,2.13-6.64c0.01-0.37,0.03-0.74,0.04-1.11c0,0,0,0,0,0
		c4.36-2.98,4.9-7.84,6-12.39c0.3-1.24-0.21-2.7,1.04-3.68c1.43-2.82,0.43-7.12,4.93-8.07c4.12-0.44,3.38-3.97,4.15-6.54
		c0.98-1.46,1.97-2.91,2.95-4.37c0.72,1.33,5.3,0.81,1.95,4.08c-0.14-0.08-0.27-0.16-0.41-0.23c0.14,0.07,0.28,0.15,0.42,0.22
		c0.05,1.38,0.1,2.76,0.15,4.15l0.04-0.05c-1.57,0.57-1.1,1.88-1.1,3.02l0.08,0.02c-3.67,1.08-4.41,3.84-4.12,7.19
		c-0.65,0.95-1.51,1.81-1.91,2.85c-2.81,7.32-1.4,15.41-4.08,22.77c0.08,3.01,0.16,6.02,0.24,9.02c1.11,3.76,2.25,7.49,6.36,9.17
		c0,0,0.14,0.34,0.14,0.34c0.37,0.18,0.74,0.35,1.11,0.53c0.55-0.12,1.09-0.25,1.64-0.37C319.74,424.05,319.84,426.45,319.95,428.84
		z"/>
	<path class="st12" d="M331.79,406.92c0.21-8.73,2.31-17.23,3.26-25.88c0.3,0.07,0.6,0.14,0.9,0.19c5.57,3.32,12.04,3.87,18.04,5.84
		c0.03,0.66,0.07,1.32,0.1,1.98c-0.65,2.48-2.89,4.3-2.9,7.05c-2.07,4.25-3.33,8.75-4.05,13.41
		C341.88,409.49,336.4,410.75,331.79,406.92z"/>
	<path class="st9" d="M353.98,387.08c-6.01-1.97-12.47-2.52-18.04-5.85c-1.47-2.45-3.57-3.89-6.46-4.08
		c0.26-2.46,0.29-4.97,1.62-7.18c0.27,0,0.54-0.05,0.8-0.12c0.16,0.44,0.32,1.25,0.47,1.25c1.38-0.03,1.17-1.54,1.93-2.2
		c1.81,0.88,3.02-2.57,4.97-0.69c-0.39,2.02,0.53,3.05,2.44,3.6c6.03,1.77,12.09,3.41,18.3,4.42c-0.01,1.13-0.72,1.68-1.65,2.15
		c-2.5,1.25-5.63,2.14-2.89,6.05C356.29,385.61,355.86,386.96,353.98,387.08z"/>
	<path class="st6" d="M331.9,369.85c-0.26,0.08-0.53,0.12-0.8,0.12c-0.27-1.09-0.65-2.05-2.05-1.92c-0.05-0.12-0.07-0.27-0.15-0.37
		c-0.05-0.06-0.18-0.04-0.27-0.06c0.16,0.13,0.31,0.26,0.47,0.39c-0.17,1.12-0.34,2.24-0.57,3.81c-2.15-1.41-0.5-4.23-2.59-5.09
		c0.02-1.08,0.04-2.15,0.06-3.23c0,0,0.06,0.08,0.06,0.08c1.02-2.53,2.03-5.06,3.05-7.6c0,0-0.07,0.11-0.07,0.11
		c0.96-1.59,2.14-3.1,2.06-5.12l-0.07,0.11c0.87-0.22,0.85-0.94,0.92-1.62c0.56-3.77,2.47-7.02,4.01-10.41
		c1.21-0.04,2.41-0.07,3.62-0.11c-2.07-5.14,2.44-2.88,4.19-3.73c-1.01,1.76-1.58,3.62-1.37,5.68
		C338.41,350.37,333.28,359.44,331.9,369.85z"/>
	<path class="st10" d="M331.79,406.92c4.62,3.83,10.09,2.57,15.35,2.59c0.84,1.47-1.21,1.4-1.27,2.39
		c-4.65-1.67-9.6-0.16-14.29-1.36c-0.99-0.25-1.97-1.71-2.81,0.11c-0.94,2.04-1.38,4.22,0.12,6.08c0.81,1,1.6,2.78,3.58,1.83
		c4.29-2.04,8.87,0.09,13.24-0.91l0.06-0.1c-0.15,0.71-0.29,1.42-0.44,2.12c-6.43,0.77-12.86,1.55-19.3,2.32
		c-1.31-4.41-1.49-8.92-1.04-13.45c0.2-2.01-0.66-6.16,3.49-2.11C329.13,407.07,330.67,406.79,331.79,406.92z"/>
	<path class="st8" d="M601.83,509.86c-1.54,3.99-3.33,8.19-7.84,10.5c-2,1.02-3.43,0.45-4.85-0.99c-1.45-1.47-2-3.13-0.87-4.9
		c2.15-3.37,4.87-6.28,8.5-8.02C600.21,504.8,602.28,506.15,601.83,509.86z"/>
	<path class="st13" d="M333.91,430.99c-0.74-0.51-1.47-1.06-2.36-0.28c-5.3,0.51-7.07-1.89-5.26-7.12
		c6.33,0.45,12.53-0.82,18.78-1.43c0.82,1.18,1.1,2.5,1.1,3.91c-0.85-0.01-1.61,0.15-2.09,0.95c-2.64,0.36-5.51-0.04-7.57,2.27
		C336.03,430.45,334.21,429.56,333.91,430.99z"/>
	<path class="st6" d="M310.15,402.96c2.68-7.36,1.27-15.44,4.08-22.76c0.4-1.04,1.26-1.91,1.91-2.86c0.38-0.08,0.76-0.15,1.14-0.23
		c-1.13,3.97-2.11,7.99-3.44,11.89c-1.3,3.81-0.04,6.38,3.22,8.3c-0.02,1.32,0.77,2.05,1.87,2.54c0.6,2.52-0.26,4.84-0.95,7.19
		c-1.92,0.11-2.7-1.94-4.39-2.28C312.56,403.92,313.28,399.76,310.15,402.96z"/>
	<path class="st4" d="M318.92,399.85c-1.1-0.49-1.89-1.22-1.87-2.54c-1.92-5.71-1.47-11.23,1.34-16.56c0.91-1.73,1.43-3.92,4.17-3.4
		C321.34,384.85,320.13,392.35,318.92,399.85z"/>
	<path class="st3" d="M313.58,404.76c1.68,0.34,2.47,2.4,4.39,2.28c0.05,2.64,0.1,5.27,0.16,7.91c-1.87,1.76-0.5,4.23-1.38,6.21
		c-4.11-1.68-5.25-5.42-6.36-9.17C313.53,410.5,312.69,407.24,313.58,404.76z"/>
	<path class="st11" d="M345.08,422.16c-6.25,0.61-12.45,1.88-18.78,1.43c-0.09-0.53-0.17-1.06-0.26-1.59
		c6.43-0.77,12.86-1.55,19.3-2.32C346.1,420.6,345.85,421.41,345.08,422.16z"/>
	<path class="st8" d="M322.56,377.35c-2.74-0.51-3.26,1.68-4.17,3.4c-2.81,5.33-3.26,10.84-1.34,16.56
		c-3.26-1.92-4.52-4.49-3.22-8.3c1.33-3.9,2.31-7.92,3.44-11.89c0.6-1.03,1.21-2.07,1.81-3.1c1,0.32,2,0.65,3,0.97l0.43,0.04l0.43,0
		C322.82,375.8,322.69,376.57,322.56,377.35z"/>
	<path class="st3" d="M329.48,377.16c2.89,0.19,4.99,1.63,6.46,4.08c-0.3-0.05-0.6-0.11-0.9-0.19c-3.99-1.04-3.73,2.98-5.34,4.67
		c-1.14,1.2-1.48,3.14-2.46,5.4C326.75,385.8,328.74,381.57,329.48,377.16z"/>
	<path class="st3" d="M322.08,374.98c-1-0.32-2-0.65-3-0.97c0.46-1.26,1.46-2.36,1.17-3.85c0,0-0.08-0.02-0.09-0.02
		c1.08-0.75,1.13-1.87,1.1-3.01c0,0-0.04,0.05-0.04,0.05c2.28-0.33,1.38-4.78,4.76-3.67c-0.02,1.08-0.04,2.15-0.06,3.23
		c-1.31,1.58-0.62,4.24-2.87,5.32C321.85,372.73,322.15,373.92,322.08,374.98z"/>
	<path class="st8" d="M316.74,421.16c0.87-1.98-0.49-4.45,1.38-6.21c2.14,1.87,0.13,4.67,1.51,6.7c-0.54,0.12-1.09,0.25-1.63,0.37
		c-0.37-0.18-0.74-0.35-1.11-0.53C316.89,421.51,316.74,421.16,316.74,421.16z"/>
	<path class="st14" d="M483.56,523.11c-0.83-2.55-0.73-4.91,1.57-6.55c0.26-0.19,1.21,0.02,1.25,0.2
		C487.12,519.55,484.66,520.97,483.56,523.11z"/>
	<path class="st14" d="M488.7,513.5c-0.62-0.38-0.8-0.95-0.54-1.6c0.32-0.8,0.93-1.34,1.83-1.15c0.2,0.04,0.45,0.79,0.37,1.13
		C490.15,512.7,489.61,513.32,488.7,513.5z"/>
	<path class="st4" d="M322.08,374.98c0.07-1.06-0.23-2.25,0.98-2.93c-0.04,0.99-0.08,1.98-0.12,2.97c0,0-0.43,0-0.43,0
		L322.08,374.98z"/>
	<path class="st14" d="M512.27,544.36c0.12-0.13,0.22-0.24,0.32-0.34c0.1,0.21,0.24,0.42,0.29,0.64c0.02,0.08-0.18,0.21-0.28,0.32
		C512.49,544.76,512.37,544.56,512.27,544.36z"/>
	<path class="st10" d="M360.07,288.91c4.56,2.35,1.05,4.14-0.42,6.07c-0.51-1.04-1.47-1.17-2.48-1.33
		c-9.37-1.49-18.57-0.54-27.25,3.05c-5.82,2.41-11.61,5.37-14.97,11.29l0.08,0c-1.21,0.12-2.06,0.51-1.49,1.97l-0.25,0
		c-2.12,0.6-2.72,2.64-3.9,4.12c-3.28,4.11-4.45,9.36-7.34,13.68c0.13-4.21-1.82-8.43,0.11-12.62
		C314.99,291.88,336.14,284.77,360.07,288.91z M344.06,290.05c1.65,0,3.3,0,4.94,0C347.26,289.01,345.55,288.55,344.06,290.05
		c-1.05,0.05-2.11,0.11-3.56,0.18C342.11,291.45,343.14,291.19,344.06,290.05z M338.43,291.36c-1.48-0.47-2.58-0.5-3.85,0.1
		C336.02,292.9,337.09,292.85,338.43,291.36z M353.95,291.1c0.36-0.14,0.8-0.31,1.24-0.48c-0.38-0.19-0.77-0.52-1.15-0.52
		c-0.36,0-0.72,0.35-1.07,0.55C353.25,290.78,353.54,290.91,353.95,291.1z"/>
	<path class="st12" d="M360.07,288.91c-23.93-4.15-45.08,2.97-57.91,26.23c-2.57-3.03,0.99-6.09-0.05-9.13
		c0.35-0.62,0.7-1.23,1.05-1.85c0.4-1,0.81-2.01,1.21-3.01c7.09-12.19,17.89-17.05,31.76-17.34c8.28-0.17,15.89,2.52,23.88,3.35
		C360.03,287.75,360.05,288.33,360.07,288.91z"/>
	<path class="st15" d="M319.11,358.96c-0.98,1.46-1.97,2.91-2.95,4.37c-0.63-3.43,2.67-7.64-2.02-10.28c0.7-1.33,1.2-2.71,0.92-4.25
		c-1.46-8.26-2.83-16.51-1.1-24.92c0.1-0.51-0.42-1.15-0.66-1.72c0.01-1.03,0.77-1.16,1.54-1.26c1.3,2.89,6.68,4.03,4.82,7.85
		c-1.9,3.89-0.43,6.82,0.6,10.05c1.3,4.02,0.21,8.59,2.91,12.26C321.83,353.69,320.47,356.33,319.11,358.96z"/>
	<path class="st12" d="M313.31,322.15c0.23,0.58,0.76,1.22,0.66,1.72c-1.73,8.41-0.36,16.66,1.1,24.92
		c0.27,1.55-0.23,2.92-0.92,4.25c-4.27-3.34-6.98-7.65-8.06-12.98c1.67-4.66,3.34-9.32,5.01-13.99
		C311.83,324.77,312.57,323.46,313.31,322.15z"/>
	<path class="st10" d="M311.1,326.08c-1.67,4.66-3.34,9.32-5.01,13.99c-1.72-3.14-2.85-6.47-3.11-10.06
		c1.63-3.17,3.26-6.34,4.89-9.51C307.79,323.03,308.56,325.07,311.1,326.08z"/>
	<path class="st7" d="M304.15,290.13c0.26,3.47-3.49,4.89-4.06,7.93c-0.06,0.32-0.09,0.63-0.07,0.96c0,0-0.01-0.02-0.01-0.02
		c-1.97,2.32-3,4.99-3.01,8.04c-1.62,1.72-0.75,3.88-1.05,5.84c-1.98,5.44-0.37,11.08-0.85,16.6c-1.21-10.27-2.31-20.53,2.07-30.42
		c1.55-1.7,2.4-3.74,2.98-5.92c0.64-0.69,1.29-1.39,1.93-2.08c0.65-0.36,1.29-0.71,1.94-1.07
		C304.01,289.99,304.15,290.13,304.15,290.13z"/>
	<path class="st11" d="M307.87,320.5c-1.63,3.17-3.26,6.34-4.89,9.51c-2.59,0.19-0.7-1.47-0.93-2.25c2.89-4.32,4.06-9.57,7.34-13.68
		c1.18-1.48,1.78-3.52,3.89-4.11c0.39,1.55-1.07,2.47-1.3,3.81c-1.15,1.72-2.3,3.44-3.45,5.17
		C308.32,319.46,308.1,319.98,307.87,320.5z"/>
	<path class="st10" d="M312.01,369.88c-4.5,0.94-3.5,5.25-4.93,8.07c0.73-2.74-1.26-4.71-2.01-7.03c1.26-0.96,1.72-2.35,2.09-3.8
		C309.81,366.21,310.47,368.81,312.01,369.88z"/>
	<path class="st4" d="M300.14,293.14c-0.58,2.18-1.43,4.23-2.98,5.92c-1.75-1.71-1.74-3.53-0.78-5.72
		C297.64,290.44,298.82,291.76,300.14,293.14z"/>
	<path class="st11" d="M307.15,367.11c-0.36,1.45-0.83,2.85-2.09,3.8c-0.28-0.27-0.56-0.53-0.85-0.8c0-2.34,0-4.69,0-7.03
		C306.87,363.21,307.17,365.05,307.15,367.11z"/>
	<path class="st4" d="M295.94,312.88c0.3-1.96-0.58-4.12,1.05-5.84C297.06,309.06,303.87,312.29,295.94,312.88z"/>
	<path class="st10" d="M304.23,363.09c0,2.34,0,4.69,0,7.03c-2.09-4.97-1.58-9.98-0.24-15.01
		C304.07,357.77,304.15,360.43,304.23,363.09z"/>
	<path class="st6" d="M305.68,353.65c0.17,0.34,0.58,0.88,0.48,0.98c-0.55,0.62-0.98,0.12-1.39-0.29
		C305.07,354.11,305.37,353.88,305.68,353.65z"/>
	<path class="st6" d="M307.73,357.39c-0.12-0.4-0.23-0.81-0.35-1.21c0.36,0.16,0.73,0.32,1.09,0.48
		C308.23,356.9,307.98,357.14,307.73,357.39z"/>
	<path class="st6" d="M308.47,356.65c0.09,0.36,0.17,0.72,0.26,1.07c-0.33-0.11-0.67-0.23-1-0.34
		C307.98,357.14,308.23,356.9,308.47,356.65z"/>
	<path class="st3" d="M304.37,301.15c-0.4,1-0.81,2.01-1.21,3.01c-1.49-1.19-1.33-2.67-0.74-4.23
		C303.07,300.33,303.72,300.74,304.37,301.15z"/>
	<path class="st7" d="M311.7,285.26c-0.24,0.13-0.47,0.25-0.71,0.38c-0.13-0.33-0.25-0.65-0.38-0.98c0.26-0.06,0.6-0.25,0.77-0.16
		C311.56,284.62,311.59,284.99,311.7,285.26z"/>
	<path class="st7" d="M304.01,289.99c0.11-1.24,0.81-1.88,2.03-1.98l0.08,0.09c-0.05,1.27-0.68,1.96-1.97,2.03
		C304.15,290.13,304.01,289.99,304.01,289.99z"/>
	<path class="st7" d="M306.04,288.01c0.41-0.8,1.14-1.02,1.96-1.04l0.13,0.13c-0.44,0.8-1.18,1-2.02,1
		C306.12,288.1,306.04,288.01,306.04,288.01z"/>
	<path class="st3" d="M300.02,299.02c-0.01-0.32,0.01-0.64,0.07-0.96C300.79,298.44,300.74,298.76,300.02,299.02z"/>
	<path class="st7" d="M308,286.97c0.17-0.13,0.35-0.26,0.52-0.39c-0.13,0.17-0.26,0.34-0.4,0.52C308.13,287.1,308,286.97,308,286.97
		z"/>
	<path class="st12" d="M354.06,301.04c0.05,0.36,0.1,0.73,0.15,1.09c-2.09,2.48-4.18,4.96-6.27,7.44c-3.28,3.2-6.56,6.39-9.83,9.58
		c-3.83,2.08-5.7-1.25-8.16-2.96c-1.17-3.37-6.11-2.59-6.96-6.32C331.85,301.68,342.41,299.44,354.06,301.04z"/>
	<path class="st10" d="M368.18,295.1c0.59-0.01,1.18-0.01,1.77-0.02c2.1,1.85,4.03,3.11,7.38,2.8c4.48-0.42,9.29,0.25,11.91,5.07
		c-0.07,0.41-0.14,0.82-0.21,1.24c-0.31-0.13-0.63-0.19-0.96-0.18l0.02,0.02c-0.7-0.63-1.4-1.25-2.1-1.88
		c-1.38-1.61-3.04-1.94-5.14-2.51c-4.63-1.24-8.95,3.33-13.28,0.03c-0.19,0.44-0.38,0.88-0.57,1.33c-0.13,0.17-0.26,0.33-0.39,0.5
		c0.17-0.13,0.33-0.26,0.5-0.39c1.12,1.24,2.32,2.47,4.18,1.95c3.63-1.02,4.08,1.6,4.78,4c-0.53,0.14-1.05,0.27-1.58,0.41
		c-1.99-0.85-4.28-2.57-4.57,1.56c-2.26,0.89-2.92,3.03-3.88,4.94c-1.1,0.71-1.53,2.31-3.15,2.3c-1.08-2.44-2.4-2.65-4.18-0.59
		c-1.81,2.09-3.73,4.11-6.94,3.41c0.7-1.64,1.45-3.26,2.09-4.93c2.12-5.51,7.82-8.59,9.65-14.29c0.21-0.08,0.33-0.24,0.35-0.47
		c0.27-0.08,0.45-0.26,0.53-0.53c0.18-0.03,0.33-0.12,0.43-0.27c0.47-0.43,0.95-0.86,1.42-1.3c0,0,0.05-0.06,0.05-0.06
		C367.27,296.83,367.89,296.11,368.18,295.1z"/>
	<path class="st10" d="M354.06,301.04c-11.65-1.6-22.21,0.63-31.07,8.84c-0.3,0-0.58,0.06-0.85,0.19c-1.33-0.66-1-1.9-1.05-3
		c0.85,0.02,1.6-0.14,2.04-0.97c0.34-0.31,0.69-0.63,1.03-0.94c1.13-0.39,3.01,0.37,2.99-1.99c-1.57-0.18-2.5,0.59-3.2,1.78
		c-0.31,0.34-0.63,0.69-0.94,1.03c-0.81,0.05-1.54,0.25-1.96,1.04c-0.89,0.03-1.69-0.11-2.04-1.08c2.45-2.46,5.3-4.31,8.29-6.08
		c9.65-5.72,20.17-5.23,30.73-4.77C358.12,298.01,355.94,299.43,354.06,301.04z M338.71,298.05c3.69,1.46,7.44,0.73,11.14,0.89
		c0.84,0.04,1.75-0.16,1.88-1.19c0.17-1.38-0.89-1.55-1.92-1.66C345.96,295.7,342.38,297.04,338.71,298.05z"/>
	<path class="st11" d="M389.24,302.95c-2.62-4.82-7.43-5.49-11.91-5.07c-3.35,0.31-5.27-0.94-7.38-2.8
		c3.46,1.84,5.72-2.25,9.31-1.67c5.49,0.9,8.23,5.66,12.8,7.63l0,0c0.34,2.65,2.42,1.85,4,2.02c0,0-0.02-0.02-0.02-0.02
		c-0.41,3.03,0.95,4.68,3.93,5.1c0.47,0.72,0.9,0.6,1.31-0.06c0.6-0.03,1.2-0.07,1.8-0.1c0,0,0.08,0.03,0.08,0.03
		c-0.05,0.61-0.09,1.23-0.14,1.84c-2.11,1.94,0.34,2.94,1.01,4.09c2.27,3.83,4.42,7.67,5.01,12.18c-3.13-1.35-3.6-4.99-6-6.98
		c-2.76-5.11-5.52-10.22-10.89-13.18l0.01,0.03c0.26-0.99-0.56-0.84-1.07-1.02l0.15-0.01C391.01,303.84,390.66,302.85,389.24,302.95
		z"/>
	<path class="st3" d="M347.94,309.58c2.09-2.48,4.18-4.96,6.27-7.44c1.42-0.29,2.64,0.22,3.82,0.95
		c-2.76,5.56-7.13,10.36-7.98,16.82c0.83,1.67,0.26,3.43-1.42,3.09c-2.21-0.45-3.3,0.63-4.66,1.69c0-1.2-0.01-2.4-0.01-3.6
		c-0.15-2.6,1.81-4.39,2.57-6.64C347.08,312.83,349.46,311.79,347.94,309.58z"/>
	<path class="st11" d="M358.02,295.08c-10.56-0.45-21.08-0.95-30.73,4.77c-2.99,1.77-5.84,3.62-8.29,6.08
		c-1.61,0.17-1.93,2.92-4.06,2.05c3.35-5.92,9.15-8.88,14.97-11.29c8.68-3.59,17.88-4.54,27.25-3.05c1.01,0.16,1.97,0.29,2.48,1.33
		C359.1,295.02,358.56,295.05,358.02,295.08z"/>
	<path class="st4" d="M350.05,319.9c0.85-6.46,5.22-11.26,7.98-16.82c1.4-0.11,1.85-0.99,2.12-2.26c0.48-2.24,1.9-1.78,3.36-0.96
		c-1.83,5.7-7.53,8.79-9.65,14.3c-0.64,1.66-1.39,3.28-2.09,4.93C351.2,319.35,350.62,319.62,350.05,319.9z"/>
	<path class="st16" d="M361.55,282.54c0.56-0.14,1.12-0.35,1.69-0.41c2.32-0.25,5.28-0.28,6.17,1.74c0.91,2.07-1.25,2.49-3.06,1.71
		c-0.87-0.38-1.63-1.02-2.49-1.41c-0.71-0.32-1.52-0.43-2.29-0.64C361.56,283.2,361.56,282.87,361.55,282.54z"/>
	<path class="st7" d="M396.05,303.06c-0.2-0.76-0.78-1.72-0.51-2.22c0.5-0.94,1.38-0.33,1.97,0.22c1.16,1.09,2.52,2.08,2.62,3.9
		c0,0-0.16,0.15-0.16,0.15c-1.31-0.69-2.63-1.37-3.94-2.06L396.05,303.06z"/>
	<path class="st7" d="M403.07,307.97c-0.6,0.03-1.2,0.07-1.8,0.1c-0.41-0.34-0.81-0.68-1.22-1.02c-0.03-0.65-0.05-1.3-0.08-1.95
		c0,0,0.16-0.15,0.16-0.15C401.96,305.14,403,306.09,403.07,307.97z"/>
	<path class="st4" d="M368.18,295.1c-0.29,1.01-0.91,1.73-1.89,2.12C366.04,295.74,366.81,295.15,368.18,295.1z"/>
	<path class="st4" d="M366.24,297.28c-0.47,0.43-0.95,0.86-1.42,1.3C364.33,297.1,365.33,297.24,366.24,297.28z"/>
	<path class="st4" d="M361.24,280.3c0.04,0.13,0.13,0.34,0.1,0.36c-0.11,0.09-0.28,0.1-0.43,0.14c-0.04-0.13-0.13-0.34-0.1-0.36
		C360.92,280.36,361.09,280.34,361.24,280.3z"/>
	<path class="st4" d="M364.39,298.85c-0.09,0.27-0.27,0.45-0.53,0.53c-0.03-0.21-0.06-0.42-0.1-0.63
		C363.97,298.79,364.18,298.82,364.39,298.85z"/>
	<path class="st11" d="M392.06,301.05c0.08-0.14,0.16-0.28,0.24-0.42C392.21,300.77,392.13,300.91,392.06,301.05L392.06,301.05z"/>
	<path class="st10" d="M300.59,386.32c-0.16-0.28-0.41-0.54-0.41-0.79c0-0.25,0.24-0.51,0.38-0.77c0.15,0.25,0.4,0.5,0.41,0.75
		C300.97,385.77,300.73,386.03,300.59,386.32z"/>
	<path class="st3" d="M409.02,326.11c-0.59-4.51-2.73-8.35-5.01-12.18c-0.68-1.14-3.12-2.15-1.01-4.09
		c4.98,4.16,8.85,9.34,12.99,14.27c0.03,0.95,0.06,1.9,0.09,2.85c-0.33,0.84-1.01,1.1-1.83,1.12c-0.71-0.06-1.42-0.12-2.13-0.18
		c-0.73-1.14-1.65-1.96-3.12-1.84L409.02,326.11z"/>
	<path class="st5" d="M404.05,308.05c0.14,0.07,0.28,0.14,0.41,0.21C404.33,308.19,404.19,308.11,404.05,308.05
		C404.06,308.04,404.05,308.05,404.05,308.05z"/>
	<path class="st16" d="M412.7,396.59c3.64-3.16,5.78-7.39,8.15-11.45c-0.75,7.3-2.36,14.36-6.06,20.8c-3.04-1.1-2,3.67-4.6,3.2
		l-0.24-0.19c0.56-3.69,4.25-6.72,2.33-10.94c0.12-0.44,0.25-0.88,0.37-1.31L412.7,396.59z"/>
	<path class="st11" d="M412.65,396.7c-0.12,0.44-0.25,0.88-0.37,1.31c-1.89,2.41-1.29,6.01-3.89,8.08
		c-5.04,0.87-8.62,5.99-14.32,4.91c-0.34-0.72-0.68-0.67-1.02,0c-1.26,2.05-2.17,3.89-5.31,4.31c-3.82,0.5-7.32,2.71-11.35,3.28
		c-2.18,0.31-5.05,1.96-5.92,3.8c-1.39,2.95-2.98,4.28-5.56,2.57c-2.57-1.7-4.65,2.65-6.89,0.02c0.81-0.61,1.61-1.22,2.42-1.83
		c3.51-0.6,6.31-2.71,9.39-4.26c6.92-3.49,11.85-10.17,19.67-12.17c8.3-2.13,12.92-7.99,15.82-15.59c0.28,0.02,0.54-0.04,0.78-0.2
		c0.3,0.05,0.59,0.12,0.88,0.2c0.9,2.25-1.41,4.24-0.62,6.56c2.37,0.42,3.93-2.52,6.34-1.39
		C412.68,396.29,412.65,396.7,412.65,396.7z"/>
	<path class="st8" d="M394.07,411.01c5.71,1.08,9.29-4.04,14.32-4.91c-2.07,5.59-4.95,10.46-11.07,12.45
		c-3.95,0.18-7.4,1.6-10.36,4.23c-1.41,0.81-2.99,1.42-4.21,2.45c-4.96,4.21-11.11,2.02-16.61,3.26c-2.06,0.44-4.18,0.7-6.18,1.36
		c-3.79,1.24-6.18,0.31-6.89-3.82c1.64-0.35,3.29-0.7,4.94-1.04c2.24,2.63,4.32-1.72,6.89-0.02c2.59,1.71,4.18,0.38,5.56-2.57
		c0.87-1.84,3.74-3.5,5.92-3.8c4.03-0.57,7.53-2.77,11.35-3.28c3.15-0.41,4.06-2.25,5.31-4.31l0.04,0.04
		c0.11,0.4,0.19,1.13,0.32,1.14c0.87,0.06,0.53-0.69,0.63-1.15L394.07,411.01z"/>
	<path class="st16" d="M366.14,428.49c5.5-1.24,11.65,0.95,16.61-3.26c1.22-1.04,2.8-1.65,4.21-2.45c0.23,1.7-0.66,2.69-2.09,3.38
		c-1.94,0.93-1.5,2.41-0.86,3.92c-0.03,0.25-0.04,0.49-0.06,0.74c-4.64,2.63-9.58,3.79-14.91,2.91c-0.63-0.5-1.21-1.33-1.91-1.44
		C363.75,431.75,364.72,430.21,366.14,428.49z"/>
	<path class="st9" d="M384.01,430.07c-0.64-1.51-1.08-2.99,0.86-3.92c1.44-0.69,2.32-1.68,2.09-3.38c2.96-2.63,6.41-4.04,10.36-4.23
		C394.08,423.77,390.36,428.44,384.01,430.07z"/>
	<path class="st16" d="M410.19,409.15c-0.14,0.4-0.29,0.79-0.43,1.19c-0.17-0.13-0.5-0.35-0.49-0.37c0.2-0.35,0.45-0.68,0.69-1.01
		C409.95,408.95,410.19,409.15,410.19,409.15z"/>
	<path class="st6" d="M416.59,371.74c0.04,1.08,0.08,2.15,0.11,3.23c-0.31,0.14-0.62,0.28-0.92,0.42c-2.1-1.22-2.9-0.03-3.42,1.8
		c-0.66,2.33-2.13,4.02-4.29,5.12c0.13-4.1,2.99-7.1,4.57-10.56c2.23-4.89,2.07-12.64-1.74-17.27c-1.47,1.26-0.6,4.06-3.01,4.65
		c-1.54-1.5-0.79-3.41-0.73-5.08c0.15-4.32,0.31-8.63-0.28-12.93c0.02-2.93,1.77-3.35,4.14-2.86c-0.11,1.44,1.64,1.65,1.89,2.86
		c-0.8,3.41-0.98,6.85,0.68,10.01c1.98,3.74,2.7,7.61,2.56,11.81C416.06,365.85,415.55,368.85,416.59,371.74z"/>
	<path class="st8" d="M408.07,382.31c2.15-1.1,3.62-2.79,4.29-5.12c0.52-1.83,1.32-3.02,3.42-1.8c1.04,4.49-0.58,8.67-1.44,12.95
		c-0.23,1.15-0.92,1.65-2.08,1.52c-2-1.25-3.99-2.49-5.99-3.74C404.14,383.56,407.12,383.41,408.07,382.31z"/>
	<path class="st6" d="M406.27,386.12c2,1.25,3.99,2.49,5.99,3.74c-1,3.67-3.73,0.01-5.3,1.26c-0.29-0.08-0.58-0.14-0.88-0.2
		C406.14,389.32,406.2,387.72,406.27,386.12z"/>
	<polygon class="st6" points="412.65,396.7 412.68,396.29 412.7,396.59 	"/>
	<path class="st10" d="M416.59,371.74c-1.03-2.89-0.53-5.89-0.43-8.82c0.14-4.21-0.58-8.07-2.56-11.81
		c-1.66-3.15-1.49-6.6-0.68-10.01c0.37,0.64,0.74,1.29,1.11,1.93c1.07,4.63,2.14,9.25,3.21,13.88
		C417.02,361.86,416.8,366.8,416.59,371.74z"/>
	<path class="st11" d="M417.24,356.91c-1.07-4.63-2.14-9.25-3.21-13.88c3.94,0.54,2.44-3.42,4.01-4.84
		c-0.04,0.21-0.06,0.43-0.07,0.65C417.82,344.87,419.16,350.96,417.24,356.91z"/>
	<path class="st6" d="M300.05,394.01c-0.01,0.37-0.02,0.74-0.04,1.11C299.41,394.73,299.35,394.35,300.05,394.01z"/>
	<path class="st9" d="M418.04,338.2c-1.57,1.42-0.07,5.38-4.01,4.84c-0.37-0.64-0.74-1.29-1.11-1.93c-0.24-1.21-2-1.42-1.89-2.86
		c2.79-2.85,4.8-5.94,3.22-10.17c0.82-0.02,1.5-0.29,1.83-1.12c1.2,0.73,0.92,1.97,1.07,3.06c-0.1,0.81,0.03,1.54,0.71,2.08
		C417.92,334.13,417.98,336.17,418.04,338.2z"/>
	<path class="st3" d="M417.86,332.1c-0.68-0.54-0.81-1.27-0.71-2.08C417.86,330.55,418.04,331.27,417.86,332.1z"/>
	<path class="st16" d="M345.08,422.16c0.78-0.76,1.02-1.57,0.25-2.48c0.15-0.71,0.29-1.41,0.44-2.12c0,0-0.1,0.15-0.1,0.15
		c0.07-1.93,0.14-3.87,0.21-5.8c0.06-0.99,2.11-0.93,1.27-2.39c0.72-4.66,1.98-9.15,4.05-13.41c1.38,1.15,0.43,2.33,0.16,3.58
		c-0.57,2.64-0.65,5.26,1.67,7.28c0.08,0.71,0.16,1.41,0.24,2.12c-0.36,1.99-0.73,3.99-1.09,5.98c0.1,3.63,0.19,7.27,0.29,10.9
		c-2.03,3.73-4.17,1.01-6.28,0.1C346.18,424.67,345.89,423.34,345.08,422.16z"/>
	<path class="st11" d="M333.91,430.99c0.31-1.43,2.13-0.54,2.61-1.69c2.57-0.21,5.22,0.2,7.65-1.04c3.27-1,4.06,1.18,4.65,3.63
		c-4.09,1.24-8.43,0.76-12.51,1.72C333.19,434.33,334.21,432.29,333.91,430.99z"/>
	<path class="st10" d="M352.45,425.97c-0.1-3.63-0.19-7.27-0.29-10.9c2.27,0.86,2.27,0.86,1.32,2.83c-1.29,2.69,1.86,5.06,6.95,5.24
		c-0.81,0.61-1.61,1.22-2.42,1.83c-1.64,0.35-3.29,0.7-4.93,1.04c0,0-0.3-0.07-0.3-0.07L352.45,425.97z"/>
	<path class="st10" d="M344.16,428.25c-2.43,1.24-5.08,0.83-7.65,1.04c2.06-2.31,4.93-1.91,7.57-2.27
		C344.11,427.44,344.14,427.85,344.16,428.25z"/>
	<path class="st10" d="M303.99,418.8c-0.54-0.13-0.8-0.43-0.6-1c0.22,0.12,0.44,0.25,0.66,0.37
		C304.12,418.39,304.1,418.6,303.99,418.8z"/>
	<path class="st10" d="M319.11,358.96c1.36-2.64,2.72-5.27,4.07-7.91c3.02-4.38,4.85-9,3.2-14.44c-0.39-1.28-0.07-2.59,0.8-3.73
		c0.77-1.01,1.56-1.78,2.78-0.68c4.77,4.31,5.92,0.32,7.29-3.17c0.59-0.04,1.18-0.08,1.77-0.12c0.31,3.78-2.27,6.69-3.08,10.13
		c-1.54,3.39-3.45,6.64-4.01,10.41c-0.61,0.37-1.04,0.83-0.92,1.62c0,0,0.07-0.11,0.07-0.11c-2.17,1.11-2.53,2.94-2.06,5.12
		c0,0,0.07-0.11,0.07-0.11c-3.37,0.2-2.17,3.86-3.96,5.24c-0.14,0.35-0.27,0.71-0.41,1.06c-0.12,1.01,0.1,1.67,1.33,1.29
		c0,0-0.06-0.07-0.06-0.08c-3.39-1.11-2.49,3.34-4.76,3.67c-0.05-1.38-0.1-2.76-0.15-4.15l-0.02,0.02
		C324.41,359.77,319.83,360.29,319.11,358.96z"/>
	<path class="st11" d="M313.58,404.76c-0.89,2.48-0.05,5.74-3.19,7.23c-0.08-3.01-0.16-6.01-0.24-9.02
		C313.28,399.76,312.56,403.92,313.58,404.76z"/>
	<path class="st10" d="M320.25,370.16c0.29,1.49-0.71,2.59-1.17,3.85c-0.6,1.03-1.21,2.07-1.81,3.1c-0.38,0.08-0.76,0.15-1.14,0.23
		C315.84,374,316.58,371.24,320.25,370.16z"/>
	<path class="st10" d="M321.27,367.12c0.03,1.15-0.02,2.27-1.1,3.01C320.16,369,319.7,367.69,321.27,367.12z"/>
	<path class="st10" d="M321.07,363.03c-0.14-0.07-0.28-0.15-0.42-0.22c0.14,0.08,0.27,0.16,0.41,0.23
		C321.06,363.04,321.07,363.03,321.07,363.03z"/>
	<path class="st3" d="M316.89,421.51c0.37,0.18,0.74,0.35,1.11,0.53C317.63,421.86,317.26,421.68,316.89,421.51z"/>
	<path class="st15" d="M414.25,328.08c1.57,4.23-0.43,7.32-3.22,10.17c-2.37-0.49-4.12-0.07-4.14,2.86
		c-2.64-1.02-4.54,0.03-6.04,2.17c-2,1.32-5.18,1.52-5.89,3.99c-1.37,4.76-5.55,5.76-9,7.81c-2.48,0.84-4.05,2.37-3.87,5.2
		c-0.69,0.05-1.37,0.11-2.06,0.16c-0.34,0.2-0.69,0.4-1.03,0.6c-0.35,0.62-0.7,1.23-1.04,1.85c-0.77,0.54-1.01,1.22-0.53,2.08
		c0.01,0.24-0.09,0.43-0.3,0.56c-4.65,2.57-8.02,6.14-9.05,11.55c-2.41,3.7-6.27,6.65-6.03,11.72c-3.71,1.1-2.87,5.85-5.97,7.44
		c0.22-1.46,0.92-3.08,0.51-4.33c-0.32-0.98,0.73-4.13-2.49-2.82c-0.03-0.66-0.07-1.32-0.1-1.98c1.88-0.12,2.31-1.47,1.48-2.65
		c-2.74-3.92,0.39-4.81,2.89-6.05c0.94-0.47,1.64-1.02,1.65-2.15c3.82-5.47,8.44-10.43,10.65-16.92c2.28-0.31,3.89-1.16,3.13-3.91
		c0.49-0.13,0.99-0.26,1.48-0.4c2.19-0.36,2.61-2.5,3.83-3.83c4.97-3.05,9.7-6.38,13.1-11.26c4.47-0.24,5.13-3.31,5.13-6.88
		c2.33,3.67,4.6,2.93,6.83-0.1c1.69-2.04,6.17-0.75,5.99-5.02c0.66,0.15,1.33,1.13,1.99-0.01
		C412.83,327.96,413.54,328.02,414.25,328.08z"/>
	<path class="st9" d="M354.09,389.06c3.22-1.3,2.17,1.85,2.49,2.82c0.42,1.25-0.29,2.87-0.51,4.33c-0.01,0.58-0.02,1.16-0.03,1.74
		c-0.13,0.08-0.38,0.16-0.38,0.24c0,0.24,0.1,0.49,0.16,0.73c-0.94,2.68-1.88,5.37-2.81,8.05c-2.32-2.02-2.24-4.64-1.67-7.28
		c0.27-1.26,1.22-2.44-0.16-3.58C351.19,393.36,353.44,391.54,354.09,389.06z"/>
	<path class="st12" d="M370.66,359.31c-2.22,6.48-6.83,11.44-10.65,16.91c-6.21-1.01-12.27-2.65-18.3-4.42
		c-1.91-0.56-2.83-1.59-2.44-3.6c1.51-0.25,2.03-1.51,2.78-2.6c4.22-6.1,8.49-12.17,12.74-18.25c0.14,1.9,1.34,2.89,2.99,3.48
		c2.55,0.91,4.8,2.56,5.93,4.8C365.28,358.79,367.54,359.61,370.66,359.31z"/>
	<path class="st16" d="M354.79,347.36c-4.25,6.08-8.52,12.14-12.74,18.25c-0.75,1.09-1.27,2.35-2.78,2.6
		c-1.95-1.87-3.16,1.57-4.97,0.7c0.14-3.97,3.12-6.44,5.07-9.43c2.96-4.55,6.35-8.84,7.7-14.25c2.49-1.38,3.86-3.58,4.59-6.25
		c2.08-1.79,2.84-4.21,3.2-6.81c0.14-0.28,0.23-0.57,0.26-0.88c1.44-1.08,3.39-1.81,2.96-4.2l0.03-0.05
		c1.63-2.49,3.27-4.98,4.9-7.47c0.36-0.51,1.2-1.02-0.01-1.51c-0.17,0.23-0.39,0.27-0.63,0.13c0.18-0.64,0.36-1.28,0.53-1.91
		c1.62,0.01,2.05-1.6,3.15-2.3c0.09,2.31-0.69,4.44-1.14,6.66c-1.1,5.4-5.73,9.69-4.79,15.66c0.1,0.93,0.2,1.86,0.3,2.79
		c-1.85,0.73-2.75,1.89-1.81,3.9c-0.95,0.14-1.95,0.17-2.49,1.18C355.67,345.22,355.23,346.29,354.79,347.36z"/>
	<path class="st3" d="M347.07,345.23c-1.35,5.41-4.74,9.7-7.7,14.25c-1.95,2.99-4.93,5.46-5.07,9.43c-0.75,0.65-0.55,2.17-1.93,2.2
		c-0.15,0-0.31-0.81-0.47-1.25c1.38-10.42,6.51-19.48,10.48-28.96C344.33,341.91,346.52,342.68,347.07,345.23z"/>
	<path class="st9" d="M355.11,331.29c-0.03,0.31-0.12,0.6-0.26,0.88c-2.59-0.97-5.72-1.34-5.81-5.14c0.08-0.11,0.16-0.21,0.23-0.32
		c-0.07,0.12-0.13,0.23-0.2,0.35c-3.41,1.72-3.93,4.85-4.01,8.2c-0.44-0.01-0.87-0.03-1.31-0.04c-1.75,0.85-6.26-1.41-4.19,3.73
		c-1.2,0.04-2.41,0.07-3.62,0.11c0.82-3.44,3.39-6.35,3.08-10.13c0,0-0.01,0.1-0.01,0.1c1.3-0.29,1.35-1.16,1.03-2.2
		c0.34-2.5,2.58-1.5,3.93-2.13c1.36-1.06,2.45-2.14,4.66-1.69c1.68,0.34,2.25-1.42,1.42-3.09c0.57-0.28,1.15-0.55,1.72-0.83
		c3.21,0.7,5.13-1.32,6.94-3.41c1.79-2.06,3.11-1.84,4.18,0.59c-0.18,0.64-0.36,1.28-0.53,1.91c-3.91,1.75-4.09,5.3-4.26,8.86
		c0,0-0.03,0.05-0.03,0.05C355.51,327.37,355.28,329.31,355.11,331.29z"/>
	<path class="st8" d="M343.75,335.21c0.44,0.01,0.87,0.03,1.31,0.04c1.81,1.93,4.35,2.56,6.59,3.72c-0.73,2.67-2.1,4.87-4.59,6.25
		c-0.55-2.54-2.73-3.32-4.69-4.34C342.17,338.84,342.74,336.97,343.75,335.21z"/>
	<path class="st11" d="M326.05,363.58c-1.23,0.38-1.44-0.29-1.33-1.29c0.14-0.35,0.27-0.71,0.41-1.06c1.8-1.39,0.59-5.04,3.96-5.24
		C328.08,358.51,327.07,361.05,326.05,363.58z"/>
	<path class="st11" d="M329.03,356.09c-0.47-2.17-0.11-4.01,2.06-5.12C331.17,352.99,329.99,354.5,329.03,356.09z"/>
	<path class="st11" d="M331.02,351.08c-0.12-0.78,0.31-1.25,0.92-1.62C331.86,350.14,331.88,350.86,331.02,351.08z"/>
	<path class="st2" d="M329.09,368.01c-0.16-0.13-0.31-0.26-0.47-0.39c0.09,0.02,0.23,0.01,0.27,0.06c0.08,0.1,0.1,0.24,0.15,0.37
		C329.05,368.05,329.09,368.01,329.09,368.01z"/>
	<path class="st6" d="M345.87,411.91c-0.07,1.93-0.14,3.87-0.2,5.8c0,0,0.05-0.04,0.05-0.04c-4.37,1-8.95-1.13-13.24,0.91
		c-1.99,0.94-2.77-0.83-3.58-1.83c-1.5-1.86-1.06-4.05-0.12-6.08c0.84-1.81,1.82-0.36,2.81-0.11
		C336.27,411.74,341.22,410.24,345.87,411.91z"/>
	<polygon class="st11" points="345.71,417.66 345.66,417.71 345.77,417.56 	"/>
	<path class="st6" d="M314.94,307.99c2.14,0.86,2.45-1.88,4.06-2.05c0.35,0.98,1.16,1.11,2.04,1.08l0.04,0.05
		c0.05,1.1-0.28,2.34,1.05,3c-1.28,4.38-5.7,6.65-7.29,10.82c-0.77,0.1-1.53,0.23-1.54,1.26c-0.74,1.31-1.48,2.62-2.21,3.93
		c-2.54-1.02-3.3-3.05-3.22-5.58c0.22-0.52,0.44-1.04,0.67-1.56c4.63,0.6,3.37-2.73,3.45-5.17c0.23-1.34,1.68-2.26,1.3-3.81
		c0,0,0.25,0,0.25,0c1.48,0.08,2.2-0.4,1.49-1.97L314.94,307.99z"/>
	<path class="st6" d="M344.06,290.05c1.49-1.5,3.2-1.04,4.94,0C347.36,290.05,345.71,290.05,344.06,290.05L344.06,290.05z"/>
	<path class="st6" d="M338.43,291.36c-1.34,1.49-2.41,1.53-3.85,0.1C335.85,290.87,336.94,290.89,338.43,291.36z"/>
	<path class="st6" d="M344.06,290.05c-0.92,1.14-1.95,1.41-3.56,0.18C341.96,290.16,343.01,290.1,344.06,290.05L344.06,290.05z"/>
	<path class="st6" d="M353.95,291.1c-0.41-0.19-0.7-0.32-0.98-0.45c0.36-0.2,0.72-0.55,1.07-0.55c0.38,0,0.77,0.33,1.15,0.52
		C354.75,290.79,354.31,290.96,353.95,291.1z"/>
	<path class="st11" d="M315.03,308c0.72,1.57-0.01,2.05-1.49,1.97C312.96,308.5,313.81,308.11,315.03,308z"/>
	<path class="st11" d="M314.85,320.89c1.59-4.17,6.01-6.44,7.29-10.82c0.27-0.13,0.55-0.19,0.85-0.19c0.85,3.72,5.79,2.95,6.96,6.32
		c-3.02,0.81-3.06,4.77-2.28,5.14c3.89,1.85,4.89,7.11,9.58,7.7c-1.37,3.49-2.52,7.47-7.29,3.17c-1.21-1.1-2-0.33-2.78,0.68
		c-0.87,1.14-1.19,2.45-0.8,3.73c1.65,5.44-0.17,10.06-3.2,14.44c-2.7-3.67-1.62-8.24-2.91-12.26c-1.04-3.22-2.5-6.16-0.6-10.05
		C321.54,324.93,316.15,323.78,314.85,320.89z"/>
	<path class="st10" d="M311.99,313.78c-0.08,2.44,1.18,5.76-3.45,5.17C309.69,317.22,310.84,315.5,311.99,313.78z"/>
	<path class="st15" d="M337.25,329.04c-4.69-0.59-5.7-5.86-9.58-7.7c-0.78-0.37-0.75-4.33,2.28-5.14c2.46,1.71,4.33,5.04,8.16,2.96
		c-0.57,2.25,0.79,3.27,2.57,4.02c2.09,0.87,2.08-1.57,3.28-2.09c0,1.2,0.01,2.4,0.01,3.6c-1.35,0.63-3.59-0.37-3.93,2.13
		c-0.85,0.5-1.45,1.11-1.03,2.2c0,0,0.01-0.1,0.01-0.1C338.43,328.96,337.84,329,337.25,329.04z"/>
	<path class="st6" d="M343.96,321.08c-1.21,0.52-1.2,2.96-3.28,2.09c-1.78-0.74-3.14-1.77-2.57-4.02c3.28-3.19,6.55-6.39,9.83-9.58
		c1.52,2.21-0.86,3.26-1.41,4.86C345.77,316.7,343.82,318.49,343.96,321.08z"/>
	<path class="st12" d="M360.41,339.07c-0.1-0.93-0.2-1.86-0.3-2.79c4.61-8.6,8.81-17.36,9.81-27.26c0.29-4.13,2.58-2.41,4.57-1.56
		c0.43,0.32,0.85,0.65,1.28,0.97c-0.02,0.28,0.07,0.52,0.28,0.71c1.53,2.01,3.06,4.02,4.58,6.03c1.07,1.7,2.15,3.4,3.22,5.11
		l-0.08-0.03c0.36,0.61,0.72,1.23,1.08,1.84c0.4,0.67,0.79,1.35,1.19,2.02c0.45,1.15,0.58,2.48,1.8,3.19l-0.07-0.06
		c1.15,3,2.31,5.99,3.46,8.99c0.32,1.23,0.64,2.47,0.95,3.7c-3.4,4.88-8.13,8.2-13.1,11.26c-1.22-1.08-2.29-2.44-3.69-3.17
		C370.23,345.3,366.69,339.87,360.41,339.07z"/>
	<path class="st13" d="M392.19,339.92c-0.32-1.23-0.64-2.47-0.95-3.7c1.74-3.55,0.51-6.72-3.46-8.98c0,0,0.07,0.06,0.07,0.05
		c-0.39-1.18,2.1-3.99-1.8-3.19c-0.4-0.67-0.79-1.35-1.19-2.02c0.65-0.3,1.18-0.85,0.68-1.44c-0.31-0.37-1.15-0.28-1.76-0.4
		c0,0,0.08,0.03,0.08,0.03c0.34-2.6,0.66-5.18-3.22-5.1c-1.53-2.01-3.06-4.02-4.58-6.03c1.05-0.11,2.04-0.53,1.86-1.72
		c-0.2-1.33-1.19-0.4-1.86-0.38l0.01,0.01c-0.69-2.4-1.14-5.02-4.78-4c-1.86,0.52-3.06-0.71-4.18-1.95L367,301
		c0.19-0.44,0.38-0.88,0.57-1.33c4.32,3.3,8.64-1.28,13.28-0.03c2.1,0.56,3.77,0.9,5.15,2.5c-1.21,2.75,1.19,1.48,2.1,1.88
		c0,0-0.02-0.02-0.02-0.02c0.33,0.35,0.67,0.71,1,1.06l-0.03-0.04c0.25,1.52-1.27,1.95-1.83,2.97c-0.79,0.45-1.99,0.74-1.4,2.01
		c0.47,1.01,1.52,1.03,2.51,0.87c2.59,1.07,2.8,1.48,1.67,3.2c-0.63-0.55-1.43-1.36-2.14-0.84c-1.09,0.8,0.29,1.27,0.64,1.78
		c2.99,4.35,5.85,8.76,7.37,13.88c-0.74,0.76-1.11,1.44,0.35,1.75c0.37,0.79,0.74,1.59,1.11,2.38
		C397.32,336.6,396.65,339.68,392.19,339.92z"/>
	<path class="st6" d="M369.92,309.02c-1,9.9-5.2,18.66-9.81,27.26c-0.93-5.97,3.7-10.26,4.79-15.66c0.45-2.22,1.23-4.35,1.14-6.66
		C367,312.05,367.67,309.91,369.92,309.02z"/>
	<path class="st16" d="M388.09,304.03c-0.9-0.4-3.3,0.87-2.1-1.88C386.69,302.77,387.39,303.4,388.09,304.03z"/>
	<path class="st13" d="M389.24,302.95c1.43-0.09,1.77,0.89,1.99,2c-0.73,0.03-1.46,0.06-2.19,0.08c0,0,0.03,0.04,0.03,0.04
		c0-0.29-0.02-0.59-0.04-0.88C389.1,303.77,389.17,303.36,389.24,302.95z"/>
	<path class="st13" d="M375.77,308.43c-0.43-0.32-0.85-0.65-1.28-0.97c0.53-0.13,1.05-0.27,1.58-0.41c0,0-0.01-0.01-0.01-0.01
		C375.96,307.5,375.86,307.96,375.77,308.43z"/>
	<path class="st16" d="M389.03,304.18c0.02,0.29,0.04,0.59,0.04,0.88c-0.33-0.35-0.67-0.71-1-1.06
		C388.4,303.99,388.72,304.05,389.03,304.18z"/>
	<path class="st13" d="M367.11,301.1c-0.17,0.13-0.33,0.26-0.5,0.39c0.13-0.17,0.26-0.33,0.39-0.5
		C367,301,367.11,301.1,367.11,301.1z"/>
	<path class="st6" d="M338.71,298.05c3.68-1.01,7.26-2.36,11.1-1.95c1.03,0.11,2.08,0.27,1.92,1.66c-0.12,1.03-1.04,1.23-1.88,1.19
		C346.15,298.78,342.39,299.51,338.71,298.05z"/>
	<path class="st6" d="M323.96,304.95c0.7-1.19,1.63-1.95,3.2-1.78c0.02,2.36-1.86,1.59-2.99,1.99L323.96,304.95z"/>
	<path class="st6" d="M321.05,307.02c0.42-0.79,1.15-0.99,1.96-1.04c0,0,0.12,0.12,0.12,0.12c-0.44,0.83-1.2,0.99-2.04,0.97
		C321.09,307.07,321.05,307.02,321.05,307.02z"/>
	<path class="st6" d="M324.16,305.16c-0.34,0.31-0.69,0.63-1.03,0.94c0,0-0.12-0.12-0.12-0.12c0.31-0.34,0.63-0.69,0.94-1.03
		C323.96,304.95,324.16,305.16,324.16,305.16z"/>
	<path class="st16" d="M389.04,305.03c0.73-0.03,1.46-0.06,2.19-0.08c0,0-0.15,0.01-0.15,0.01c-0.01,0.73,0.36,1.05,1.07,1.02
		c0,0-0.01-0.03-0.01-0.03c1.94,5.9,7.19,9.31,10.59,14.12c0.1-0.31,0.2-0.63,0.3-0.94c2.4,1.98,2.86,5.63,6,6.98
		c0,0-0.01-0.04-0.01-0.04c0.38,0.62,0.75,1.23,1.13,1.85c0.18,4.27-4.3,2.98-5.99,5.02c0.03-2.38-1.46-3.97-2.88-5.61
		c-3.79-4.39-8.13-8.31-11.27-13.24c1.13-1.72,0.92-2.13-1.67-3.2c-0.26-1.01-0.1-2.17-1.11-2.89
		C387.77,306.98,389.29,306.55,389.04,305.03z"/>
	<path class="st10" d="M403.03,319.13c-0.1,0.31-0.2,0.63-0.3,0.94c-3.39-4.81-8.65-8.22-10.59-14.12
		C397.51,308.9,400.26,314.02,403.03,319.13z"/>
	<path class="st5" d="M399.97,305.1c0.03,0.65,0.05,1.3,0.08,1.95c-0.03,0.36-0.06,0.72-0.09,1.08c-2.98-0.41-4.34-2.07-3.93-5.1
		C397.35,303.73,398.66,304.42,399.97,305.1z"/>
	<path class="st3" d="M399.96,308.14c0.03-0.36,0.06-0.72,0.09-1.08c0.4,0.34,0.81,0.68,1.22,1.02
		C400.87,308.74,400.44,308.85,399.96,308.14z"/>
	<path class="st10" d="M392.15,305.97c-0.71,0.03-1.08-0.29-1.07-1.02C391.59,305.13,392.41,304.99,392.15,305.97z"/>
	<path class="st11" d="M410.14,327.91c-0.38-0.62-0.75-1.23-1.13-1.85c1.47-0.12,2.39,0.69,3.12,1.84
		C411.47,329.04,410.8,328.06,410.14,327.91z"/>
	<path class="st13" d="M360.43,423.14c-5.09-0.18-8.24-2.55-6.95-5.24c0.95-1.97,0.95-1.97-1.32-2.83c0.36-1.99,0.73-3.99,1.09-5.98
		c1.61-0.01,2.09-2.19,3.82-1.98c0.28,2.18,1.96,1.99,3.42,1.88c7.48-0.6,12.66-5.67,18.21-9.82c2.2-1.64,5.12-3.27,5.25-6.76
		l0.06-0.35c1.2-0.53,0.94-1.57,0.9-2.54c1.63-2.65,3.26-5.3,7.1-4.34c0.72,1.17,0.98,2.14,0.08,3.56c-1.68,2.65,1.46,4.11,2.44,3.9
		c2.31-0.51,4.16-2.43,5.1-4.83c0.68-1.74,1.21-3.59,3.38-2.27c1.92,1.49-6.26,6.41,2.3,5.59c-2.9,7.6-7.52,13.46-15.82,15.59
		c-7.81,2.01-12.74,8.69-19.67,12.17C366.74,420.44,363.93,422.54,360.43,423.14z"/>
	<path class="st16" d="M405.3,391.12c-8.56,0.82-0.37-4.11-2.3-5.59c-2.18-1.32-2.7,0.53-3.38,2.27c-0.94,2.4-2.78,4.32-5.1,4.83
		c-0.98,0.22-4.12-1.24-2.44-3.9c0.9-1.42,0.64-2.39-0.08-3.56c0.34-2.77-0.39-4.38-3.68-4.11c-2.93,0.24-5.9,0-8.85-0.02
		c-2.05-0.01-4.05-0.09-4.38-2.79c5.59,0.37,11.1,2.8,16.78,0.58c1.62,2.11,3.33,0.84,5.03,0.14c1.13,0.82,2.51-1.96,2.99-0.28
		c1.08,3.78,2.29,1.51,3.49,0.34c3.11-3.03,3.63-7.14,4.5-11.09c-1.58-2.19-0.53-4.33,0.1-6.48c0-0.55,0.01-1.1,0.01-1.65
		c-0.08-0.23-0.12-0.46-0.11-0.7c2.41-0.58,1.54-3.39,3.01-4.65c3.8,4.64,3.97,12.38,1.74,17.27c-1.58,3.46-4.44,6.46-4.57,10.56
		c-0.95,1.11-3.93,1.26-1.8,3.82c-0.06,1.6-0.12,3.2-0.18,4.8C405.84,391.07,405.59,391.14,405.3,391.12z"/>
	<path class="st8" d="M393.04,411c0.34-0.67,0.68-0.72,1.02,0c0,0-0.03,0.03-0.03,0.03c-0.32-0.02-0.64-0.02-0.96,0.01L393.04,411z"
		/>
	<path class="st11" d="M393.08,411.05c0.32-0.03,0.64-0.03,0.96-0.01c-0.11,0.46,0.24,1.21-0.63,1.15
		C393.27,412.18,393.19,411.44,393.08,411.05z"/>
	<path class="st11" d="M407.9,359.12c-0.01,0.24,0.03,0.48,0.11,0.7c-0.27,0.13-0.55,0.25-0.83,0.34c-4.72,0.66-2.39-3.34-3.36-5.18
		c-1.1,0.38-0.44,1.47-0.83,1.98c-1.67,2.14-0.79-1.34-1.77-0.85c-0.12-4.28-0.25-8.56-0.37-12.83c1.51-2.14,3.4-3.19,6.04-2.17
		c0.59,4.3,0.43,8.61,0.28,12.93C407.1,355.71,406.35,357.62,407.9,359.12z"/>
	<path class="st6" d="M357.07,407.11c-1.72-0.21-2.21,1.97-3.82,1.98c-0.08-0.71-0.16-1.41-0.24-2.12c0.94-2.68,1.87-5.37,2.81-8.05
		c0.07-0.32,0.14-0.65,0.21-0.97c0.01-0.58,0.02-1.16,0.03-1.74c3.1-1.59,2.27-6.34,5.97-7.44c0,0,0.03,0.39,0.03,0.39
		c1.01,3.07,0.28,7.77-0.69,8.76c-2.92,2.98-0.64,4.14,0.61,5.96c0.01,0.74,0.02,1.48,0.03,2.22
		C360.56,407.36,358.15,403.97,357.07,407.11z"/>
	<path class="st3" d="M325.14,361.23c-0.14,0.35-0.27,0.71-0.41,1.06C324.86,361.94,325,361.58,325.14,361.23z"/>
	<path class="st8" d="M391.88,378.83c-5.68,2.22-11.19-0.21-16.78-0.58c-0.3-0.24-0.59-0.49-0.89-0.74c1.3-1.63,2.49-3.37,3.92-4.87
		c2.76-2.89,2.78-5.24-1.01-7.14c0.21-0.13,0.3-0.31,0.3-0.55c0.18-0.69,0.36-1.39,0.53-2.09c0.35-0.62,0.7-1.23,1.04-1.85
		c0.34-0.2,0.69-0.4,1.03-0.6c0.69-0.05,1.37-0.11,2.06-0.16c1.15,2.62,3.65,4.71,5.92,4.48c3.38-0.34,6.05-2.61,3.98-6.87
		c0.79-0.92,1.02-2.4,3.04-2.73C395.72,363.38,394.12,371.14,391.88,378.83z"/>
	<path class="st6" d="M391.88,378.83c2.24-7.69,3.84-15.45,3.14-23.68c-2.02,0.33-2.25,1.81-3.04,2.73
		c-2.42-0.05-3.97-1.98-6.03-2.81c3.46-2.05,7.63-3.05,9-7.81c0.71-2.46,3.89-2.67,5.89-3.99c0.12,4.28,0.25,8.56,0.37,12.83
		c0.02,1.95,0.04,3.9,0.06,5.85c0,0.7,0.01,1.4,0.01,2.11c-0.7,2.91-1.4,5.82-2.1,8.73c-0.76,2.06-1.52,4.12-2.28,6.18
		C395.21,379.68,393.49,380.95,391.88,378.83z"/>
	<path class="st9" d="M374.21,377.52c0.3,0.25,0.59,0.49,0.89,0.74c0.33,2.7,2.33,2.77,4.38,2.79c2.95,0.02,5.92,0.26,8.85,0.02
		c3.29-0.27,4.02,1.34,3.68,4.11c-3.84-0.96-5.47,1.69-7.1,4.34c-0.96-0.19-1.92-0.38-2.88-0.56c-2.01-2.05-4.79-0.11-7.07-1.38
		c1.48-1.25,3.64,0.29,5.42-1.58c-4.72,0.05-9-0.49-12.26,3.15l-0.01-0.1c-2.01,0.05-4.02,0.09-6.03,0.14c0,0-0.03-0.39-0.03-0.39
		c-0.24-5.07,3.62-8.02,6.03-11.72C370.12,377.21,372.16,377.36,374.21,377.52z"/>
	<path class="st11" d="M360.41,339.07c6.28,0.8,9.82,6.23,14.99,8.94c1.4,0.73,2.47,2.1,3.69,3.17c-1.22,1.33-1.64,3.47-3.83,3.83
		c-0.81-1.09-1.57-2.25-3.22-1.94l-0.01-0.01c-0.46-1.45-1.34-2.28-2.97-1.97l-0.05-0.04c-0.25-1.12-0.85-1.54-1.94-0.97l-0.06-0.04
		c-0.93-2.9-2.96-4.15-5.95-3.96l-0.05-0.03c0.53-1.84-0.61-2.02-1.97-1.97l-0.02-0.02c0.31-0.54,0.05-0.85-0.42-1.08
		C357.66,340.95,358.56,339.79,360.41,339.07z"/>
	<path class="st8" d="M354.79,347.36c0.44-1.07,0.88-2.14,1.33-3.21c0.97-0.03,1.94-0.06,2.91-0.1c0,0,0.02,0.02,0.02,0.02
		c-0.17,1.48,0.57,2.06,1.97,1.97c0,0,0.05,0.03,0.05,0.03c1.52,2.02,3.29,3.65,5.95,3.96c0,0,0.06,0.04,0.06,0.04
		c0.26,1.09,0.87,1.49,1.94,0.97c0,0,0.05,0.04,0.05,0.04c0.03,2.11,1.37,2.23,2.97,1.97c0,0,0.01,0.01,0.01,0.01
		c-0.41,1.52,0.8,1.82,1.74,2.33c0.76,2.75-0.84,3.6-3.13,3.91c-3.11,0.29-5.37-0.52-6.95-3.67c-1.13-2.25-3.38-3.89-5.93-4.8
		C356.13,350.24,354.92,349.25,354.79,347.36z"/>
	<path class="st11" d="M389.99,314.09c3.15,4.93,7.48,8.85,11.27,13.24c1.42,1.65,2.91,3.23,2.88,5.61
		c-2.23,3.04-4.49,3.77-6.83,0.1c-0.37-0.79-0.74-1.59-1.11-2.38c-0.12-0.58-0.24-1.17-0.35-1.75c-1.52-5.12-4.38-9.54-7.37-13.88
		c-0.35-0.51-1.74-0.97-0.64-1.78C388.56,312.72,389.37,313.54,389.99,314.09z"/>
	<path class="st6" d="M374.21,377.52c-2.05-0.15-4.09-0.3-6.14-0.46c1.03-5.41,4.4-8.98,9.05-11.55c3.79,1.89,3.77,4.25,1.01,7.14
		C376.69,374.15,375.51,375.89,374.21,377.52z"/>
	<path class="st11" d="M385.95,355.07c2.06,0.83,3.6,2.76,6.03,2.81c2.07,4.26-0.61,6.53-3.98,6.87c-2.27,0.23-4.76-1.87-5.92-4.48
		C381.9,357.44,383.47,355.91,385.95,355.07z"/>
	<path class="st9" d="M373.78,355.4c-0.94-0.51-2.15-0.82-1.74-2.33c1.65-0.32,2.42,0.85,3.22,1.94
		C374.77,355.14,374.27,355.27,373.78,355.4z"/>
	<path class="st11" d="M377.95,362.87c-0.18,0.7-0.36,1.39-0.53,2.09C376.94,364.09,377.18,363.42,377.95,362.87z"/>
	<path class="st11" d="M380.02,360.43c-0.34,0.2-0.69,0.4-1.03,0.6C379.33,360.82,379.68,360.63,380.02,360.43z"/>
	<path class="st15" d="M356.04,397.95c-0.07,0.32-0.14,0.65-0.21,0.97c-0.06-0.24-0.16-0.49-0.16-0.73
		C355.66,398.12,355.91,398.03,356.04,397.95z"/>
	<path class="st4" d="M351.66,338.98c-2.24-1.16-4.78-1.79-6.59-3.72c0.08-3.35,0.6-6.48,4.01-8.2l-0.03-0.03
		c0.09,3.8,3.22,4.17,5.81,5.14C354.5,334.77,353.74,337.18,351.66,338.98z"/>
	<path class="st15" d="M358.1,327.03c0.17-3.56,0.36-7.11,4.26-8.86c0.24,0.15,0.45,0.11,0.63-0.12c0,0.5,0.01,1.01,0.01,1.51
		C361.37,322.05,359.74,324.54,358.1,327.03z"/>
	<path class="st15" d="M355.11,331.29c0.17-1.98,0.39-3.92,2.96-4.2C358.5,329.48,356.55,330.21,355.11,331.29z"/>
	<path class="st9" d="M359.03,344.05c-0.97,0.03-1.94,0.06-2.91,0.1c0.54-1.01,1.54-1.04,2.49-1.18
		C359.08,343.2,359.33,343.52,359.03,344.05z"/>
	<path class="st10" d="M363,319.56c0-0.5-0.01-1.01-0.01-1.51C364.2,318.54,363.37,319.05,363,319.56z"/>
	<path class="st10" d="M339.01,329.01c-0.43-1.09,0.18-1.71,1.03-2.2C340.36,327.86,340.31,328.73,339.01,329.01z"/>
	<path class="st4" d="M349.08,327.06c0.07-0.12,0.13-0.23,0.2-0.35c-0.08,0.11-0.16,0.21-0.23,0.32
		C349.04,327.03,349.08,327.06,349.08,327.06z"/>
	<path class="st10" d="M387.77,327.23c3.97,2.26,5.2,5.43,3.46,8.98C390.08,333.22,388.93,330.23,387.77,327.23z"/>
	<path class="st10" d="M380.63,315.16c3.89-0.08,3.57,2.51,3.22,5.1C382.78,318.57,381.71,316.87,380.63,315.16z"/>
	<path class="st10" d="M386.04,324.1c3.9-0.81,1.41,2.01,1.8,3.19C386.62,326.58,386.49,325.25,386.04,324.1z"/>
	<path class="st10" d="M375.77,308.43c0.09-0.46,0.19-0.93,0.28-1.39c0.66-0.02,1.66-0.95,1.86,0.38c0.18,1.19-0.81,1.6-1.86,1.72
		C375.84,308.94,375.75,308.71,375.77,308.43z"/>
	<path class="st10" d="M383.77,320.24c0.6,0.12,1.44,0.03,1.76,0.4c0.5,0.59-0.03,1.14-0.68,1.44
		C384.49,321.47,384.13,320.85,383.77,320.24z"/>
	<path class="st6" d="M387.21,308c1.01,0.72,0.85,1.88,1.11,2.89c-0.99,0.15-2.04,0.14-2.51-0.87
		C385.22,308.74,386.41,308.45,387.21,308z"/>
	<path class="st15" d="M395.86,328.91c0.12,0.58,0.24,1.17,0.35,1.75C394.75,330.35,395.13,329.66,395.86,328.91z"/>
	<path class="st12" d="M362.03,406.11c-0.01-0.74-0.02-1.48-0.03-2.22c2.03-4.95,4.07-9.9,6.1-14.86c0,0,0.01,0.1,0.01,0.1
		c4.64,0.5,9.25,1.46,13.96,0.86c1.41-0.04,2.16,0.55,1.93,2.06c0,0-0.06,0.35-0.06,0.36C377.32,398.06,370.87,404,362.03,406.11z"
		/>
	<path class="st10" d="M362.03,406.11c8.84-2.11,15.29-8.05,21.92-13.7c-0.13,3.49-3.05,5.12-5.25,6.76
		c-5.55,4.15-10.73,9.22-18.21,9.82c-1.46,0.12-3.14,0.3-3.42-1.88C358.15,403.97,360.56,407.36,362.03,406.11z"/>
	<path class="st10" d="M384.01,392.05c0.23-1.51-0.52-2.09-1.93-2.06c-0.02-0.35-0.03-0.7-0.05-1.05c0.96,0.19,1.92,0.37,2.88,0.56
		C384.94,390.48,385.2,391.52,384.01,392.05z"/>
	<path class="st15" d="M396.9,378.98c0.76-2.06,1.52-4.12,2.28-6.18c1.65-0.4,2.99-1.47,3.74-2.8c1.21-2.16,2.85-2.49,4.96-2.05
		c-0.87,3.95-1.39,8.07-4.5,11.09c-1.2,1.17-2.41,3.44-3.49-0.34C399.42,377.02,398.03,379.79,396.9,378.98z"/>
	<path class="st4" d="M407.89,367.95c-2.11-0.43-3.75-0.1-4.96,2.05c-0.74,1.33-2.09,2.4-3.74,2.8c0.7-2.91,1.4-5.82,2.1-8.73
		c1.18,0.68,1.77,0.41,1.78-1.02c0.01-1.43-0.61-1.69-1.79-1.09c-0.02-1.95-0.04-3.9-0.06-5.85c0.98-0.48,0.1,3,1.77,0.85
		c0.39-0.5-0.27-1.59,0.83-1.98c0.96,1.84-1.37,5.84,3.36,5.18c0.27,0.44,0.55,0.87,0.82,1.31
		C407.35,363.62,406.31,365.76,407.89,367.95z"/>
	<path class="st6" d="M407.99,361.47c-0.27-0.44-0.54-0.87-0.82-1.31c0.29-0.09,0.56-0.21,0.83-0.34
		C408,360.37,408,360.92,407.99,361.47z"/>
	<path class="st10" d="M368.1,389.03c-2.03,4.95-4.07,9.9-6.1,14.86c-1.25-1.82-3.54-2.97-0.61-5.96c0.97-0.99,1.69-5.69,0.69-8.76
		C364.08,389.12,366.09,389.08,368.1,389.03z"/>
	<path class="st11" d="M401.28,361.96c1.18-0.6,1.8-0.34,1.79,1.09c-0.01,1.43-0.6,1.7-1.78,1.02
		C401.28,363.36,401.28,362.66,401.28,361.96z"/>
	<path class="st16" d="M382.02,388.95c0.02,0.35,0.03,0.7,0.05,1.05c-4.71,0.6-9.32-0.36-13.96-0.86c3.26-3.64,7.54-3.1,12.26-3.15
		c-1.78,1.87-3.94,0.34-5.42,1.58C377.24,388.84,380.01,386.9,382.02,388.95z"/>
	<path class="st9" d="M367.02,350.04c-2.66-0.31-4.43-1.94-5.95-3.96C364.05,345.89,366.09,347.14,367.02,350.04z"/>
	<path class="st9" d="M372.03,353.05c-1.6,0.26-2.94,0.13-2.97-1.97C370.69,350.78,371.57,351.6,372.03,353.05z"/>
	<path class="st9" d="M361.02,346.04c-1.4,0.09-2.14-0.49-1.97-1.97C360.41,344.03,361.55,344.2,361.02,346.04z"/>
	<path class="st9" d="M369.01,351.05c-1.07,0.52-1.68,0.12-1.94-0.97C368.16,349.51,368.76,349.92,369.01,351.05z"/>
</g>
</svg>
